<?xml version="1.0" encoding="utf-8" ?>
<svg baseProfile="full" height="200mm" version="1.1" viewBox="0,0,200,200" width="200mm" xmlns="http://www.w3.org/2000/svg" xmlns:ev="http://www.w3.org/2001/xml-events" xmlns:xlink="http://www.w3.org/1999/xlink"><defs /><rect fill="#1a1a1a" height="200" width="200" x="0" y="0" /><text alignment-baseline="middle" fill="#e1ed5e" style="dominant-baseline: central; font-size:9.0px; font-family:Arial;" text-anchor="middle" x="100.0" y="100.0">2026</text><line stroke="#e1ed5e" stroke-width="0.3" x1="100.0" x2="100.0" y1="15.0" y2="10.0" /><path d="M 100.0 14.0 a86.0,86.0 0 0,1 42.46469731375804,11.215312516191453" fill="none" id="id25" stroke="none" /><text fill="#e1ed5e" style="font-size:6.75px; font-family:Arial;" text-anchor="middle"><textPath startOffset="22.20632615414155" xlink:href="#id25">January</textPath></text><path d="M 101.08401301168833 79.027996857942 l 1.3461242409586271 -26.042973199201413 a47.07773961689202,47.07773961689202 0 0,0 0.808925481362931,0.04879659411547976 l -1.7942117711611698 26.01594333570563" fill="red" stroke="none" /><path d="M 101.44485096284872 79.0497635885617 l 1.791723012351234 -25.97985650960392 a47.041567072904776,47.041567072904776 0 0,0 0.807344870516397,0.06266550024325103 l -2.2386580722299723 25.945165747172204" fill="red" stroke="none" /><path d="M 102.16513564639614 79.11191278185805 l 2.6921332751130067 -25.972282497414557 a47.11143503709586,47.11143503709586 0 0,0 0.8059045767030178,0.09055276932876685 l -3.13880455532575 25.92209377461519" fill="red" stroke="none" /><path d="M 102.52436894288641 79.15227682838746 l 3.073162119353504 -25.379979937683366 a46.56536146916447,46.56536146916447 0 0,0 0.7949045832573194,0.10320142882109588 l -3.5095814311186695 25.323320185698133" fill="red" stroke="none" /><path d="M 103.2404852339499 79.25152402106235 l 6.9949574614563295 -44.78795500814832 a66.3308983332506,66.3308983332506 0 0,0 1.126585436478193,0.18589624997541043 l -7.7648721040733975 44.66091249523329" fill="red" stroke="none" /><path d="M 103.59715602781102 79.31037775812273 l 10.237067499218576 -58.88014247530944 a80.7634397344756,80.7634397344756 0 0,0 1.3676130098138741,0.24992253598112069 l -11.24907563013535 58.69520445797758" fill="red" stroke="none" /><path d="M 104.307194497241 79.44645832069477 l 5.363634421230831 -25.594777226786466 a47.150739865125026,47.150739865125026 0 0,0 0.7929346116625335,0.17330479392288503 l -5.803411757046892 25.49865893476771" fill="red" stroke="none" /><path d="M 105.36241919743992 79.69619591428918 l 4.701670012786557 -17.802000048943246 a39.41241175543583,39.41241175543583 0 0,0 0.654437674757367,0.17888253803757326 l -5.007405576767635 17.71843097007938" fill="red" stroke="none" /><path d="M 106.0581310904928 79.89281104454417 l 13.36213674288571 -44.34948737895124 a67.3187189925556,67.3187189925556 0 0,0 1.1066384041241417,0.34383793900109594 l -14.12356051972057 44.11290930506762" fill="red" stroke="none" /><path d="M 107.4271985657038 80.35727306442388 l 9.21463478240632 -24.369963081055378 a47.05387868907688,47.05387868907688 0 0,0 0.7551404414420146,0.2929827594688531 l -9.632758388848 24.20773761769598" fill="red" stroke="none" /><path d="M 107.76421540070413 80.48803036053334 l 9.632333750556995 -24.206670474525133 a47.05273016296692,47.05273016296692 0 0,0 0.7499670364500023,0.30593038471879386 l -10.047584656595385 24.03727920362276" fill="red" stroke="none" /><path d="M 108.09893153111575 80.62456947434976 l 24.296794593347244 -58.12629157695072 a84.0,84.0 0 0,0 1.329264968838739,0.5691218881488367 l -25.2937433199763 57.69945016083909" fill="red" stroke="none" /><path d="M 108.43124777332544 80.76684994638697 l 18.175541386349153 -41.46158720364937 a66.27044861863766,66.27044861863766 0 0,0 1.0408180462692935,0.4669847182431999 l -18.886541551085227 41.14258215488964" fill="red" stroke="none" /><path d="M 109.08828744355905 81.06846463323043 l 11.423225312596001 -23.79537347943954 a47.39526236975773,47.39526236975773 0 0,0 0.7324344974555065,0.35940242697331876 l -11.831131077061938 23.59521589233139" fill="red" stroke="none" /><path d="M 109.41281617654863 81.2277094730956 l 11.675888826324895 -23.28561113874585 a47.04891679109869,47.04891679109869 0 0,0 0.7208331213259669,0.36923872205348884 l -12.074982435239617 23.08117989137986" fill="red" stroke="none" /><path d="M 109.73455568895987 81.39251694778311 l 12.440090203841757 -23.779078884777363 a47.83655039099072,47.83655039099072 0 0,0 0.7263295737697831,0.3879801039217406 l -12.847564824139852 23.561420054353867" fill="red" stroke="none" /><path d="M 110.36928655335952 81.73862282372117 l 22.63136197456308 -39.85614968818595 a66.83329807891621,66.83329807891621 0 0,0 0.995508286628747,0.5766626552291051 l -23.314066993657157 39.460682875566796" fill="red" stroke="none" /><line stroke="#e1ed5e" stroke-width="0.3" x1="143.23703022742887" x2="145.7803849466894" y1="26.81831364943548" y2="22.513508569990506" /><path d="M 143.74570117128098 25.957352633546492 a86.0,86.0 0 0,1 28.547481713284135,27.462654790039103" fill="none" id="id26" stroke="none" /><text fill="#e1ed5e" style="font-size:6.75px; font-family:Arial;" text-anchor="middle"><textPath startOffset="19.985693538727396" xlink:href="#id26">February</textPath></text><path d="M 110.68208982089419 81.91981866633111 l 31.439240573037786 -53.21310530843115 a82.80663738123543,82.80663738123543 0 0,0 1.2209560048662418,0.7356123315619285 l -32.35055864412167 52.664046367410606" fill="red" stroke="none" /><path d="M 110.99172775467656 82.1063720568725 l 13.679947423021614 -22.269828268349208 a47.13591805539651,47.13591805539651 0 0,0 0.6876925013106631,0.4306329812317059 l -14.061259076704541 22.031050945794558" fill="red" stroke="none" /><path d="M 111.90073688211348 82.69761687909136 l 14.715727220321089 -21.395074337914572 a46.967322417757856,46.967322417757856 0 0,0 0.6621696011920387,0.4638921221064847 l -15.081827961096778 21.138597373044153" fill="red" stroke="none" /><path d="M 113.06298171725822 83.55741782278167 l 11.324156694774608 -14.253895555524789 a39.20467147068625,39.20467147068625 0 0,0 0.524776186228836,0.4243325135261863 l -11.567836279567935 14.056856944734472" fill="red" stroke="none" /><path d="M 116.38621287248628 86.86637796730983 l 19.50521569004228 -15.63351657473274 a45.997205435958534,45.997205435958534 0 0,0 0.4898612999920601,0.6220741047960415 l -19.771431070628303 15.29545007598366" fill="red" stroke="none" /><path d="M 116.82858285166822 87.43820079747576 l 20.9220620524317 -15.617401935858563 a47.10815818383138,47.10815818383138 0 0,0 0.4794654599765214,0.6539903485738536 l -21.187790124921847 15.254949143613215" fill="red" stroke="none" /><path d="M 117.04232023915458 87.72973835380427 l 21.210981983834532 -15.271646997715644 a47.13673580884557,47.13673580884557 0 0,0 0.4684210431878325,0.6625483462682206 l -21.470715646826246 14.90427215111563" fill="red" stroke="none" /><path d="M 117.2510076193507 88.02491185347247 l 21.386034796077674 -14.845489460016497 a47.033652098898955,47.033652098898955 0 0,0 0.4559476598849645,0.6690469298950044 l -21.638406921631372 14.475164506851087" fill="red" stroke="none" /><path d="M 117.45458315368197 88.32363383020206 l 15.206276404409074 -10.172345556105961 a39.29501178464001,39.29501178464001 0 0,0 0.37125059770107477,0.5654401303382207 l -15.379123637468073 9.909087361790068" fill="red" stroke="none" /><line stroke="#e1ed5e" stroke-width="0.3" x1="172.23445277983987" x2="176.4835382374775" y1="55.19839476539836" y2="52.563006222186495" /><path d="M 173.08426987136738 54.67131705675599 a86.0,86.0 0 0,1 12.851231095245387,41.99856678651699" fill="none" id="id27" stroke="none" /><text fill="#e1ed5e" style="font-size:6.75px; font-family:Arial;" text-anchor="middle"><textPath startOffset="22.20632615414155" xlink:href="#id27">March</textPath></text><path d="M 117.84615892207809 88.93136811851018 l 36.92751197184485 -22.903361899909818 a64.45348233167263,64.45348233167263 0 0,0 0.5766567178837754,0.9478720225261186 l -37.31628448801485 22.264322104176618" fill="red" stroke="none" /><path d="M 118.21658344932153 89.55222093294921 l 15.283451494901072 -8.765536361136958 a38.61869794551822,38.61869794551822 0 0,0 0.3257622497278176,0.579494692737147 l -15.432071385921324 8.501158158465016" fill="red" stroke="none" /><path d="M 118.56541770881063 90.18545643968196 l 40.70032842392347 -21.516087195079766 a67.03757967141092,67.03757967141092 0 0,0 0.5305244459602687,1.024804367055633 l -41.06466230304385 20.81231010576379" fill="red" stroke="none" /><path d="M 118.73160827565052 90.50648371742162 l 23.37881604156751 -11.848804837892018 a47.20998312841707,47.20998312841707 0 0,0 0.36113386086755905,0.7280238268221056 l -23.579309915388478 11.444621422570963" fill="red" stroke="none" /><path d="M 119.47837535516314 92.15188598940014 l 16.945567623028865 -6.827609811133874 a39.26933271358688,39.26933271358688 0 0,0 0.24722186078941585,0.6291526699316586 l -17.06058303369998 6.534908136306431" fill="red" stroke="none" /><path d="M 119.61058180528143 92.48833698450437 l 18.5662474690316 -7.1116398194827894 a40.88167412476564,40.88167412476564 0 0,0 0.24605981065439106,0.659317959312605 l -18.685911868187617 6.790998723140851" fill="red" stroke="none" /><path d="M 119.7369772167798 92.82701384747503 l 21.49733641287084 -7.812751401192117 a43.87300936267399,43.87300936267399 0 0,0 0.2518455292510824,0.7120012250765075 l -21.628635022931736 7.441552549688995" fill="red" stroke="none" /><path d="M 119.85752413597 93.16781622104841 l 28.973084748880535 -9.968485410974509 a51.64001209618928,51.64001209618928 0 0,0 0.28196112079083774,0.8430278624757497 l -29.140383163443143 9.468284445576446" fill="red" stroke="none" /><path d="M 119.97218684219823 93.5106431181261 l 40.1638522496996 -13.050026672515727 a63.230773420446276,63.230773420446276 0 0,0 0.3274285650746951,1.0380380292108407 l -40.382536298542504 12.356738476878467" fill="red" stroke="none" /><path d="M 120.18372546131832 94.20196356495316 l 25.03160423015696 -7.190652371499472 a47.04393771807487,47.04393771807487 0 0,0 0.21687978741722416,0.7802319880889669 l -25.15167078814055 6.7587090799915535" fill="red" stroke="none" /><path d="M 120.37134235888165 94.90015583598534 l 25.187959017966673 -6.305655441758988 a46.96525698006768,46.96525698006768 0 0,0 0.18957682472530196,0.7859183286527116 l -25.292768642952794 5.87115188144687" fill="red" stroke="none" /><path d="M 120.53481517161879 95.60439243477599 l 34.8593343431225 -7.461861841789515 a56.64901924305288,56.64901924305288 0 0,0 0.19589960300739948,0.9552760365920171 l -34.9826132420449 6.8607101490340865" fill="red" stroke="none" /><path d="M 120.6074358757038 95.95851677861258 l 44.51536493361631 -8.730251621710037 a66.3633663714611,66.3633663714611 0 0,0 0.21019577490964395,1.1228742345316127 l -44.659046432435815 7.9626993097158625" fill="red" stroke="none" /><path d="M 120.91429891909075 98.10471618934814 l 19.77181051764239 -1.7917498705709909 a40.85282999333459,40.85282999333459 0 0,0 0.05743813776131574,0.7008907661559758 l -19.7997231392232 1.4511451872072463" fill="red" stroke="none" /><path d="M 120.94382443527127 98.46500227214037 l 45.109648392752376 -3.306139621320074 a66.23064157530169,66.23064157530169 0 0,0 0.07354568661592487,1.13771921985696 l -45.159874670372716 2.5291613372100787" fill="red" stroke="none" /><line stroke="#e1ed5e" stroke-width="0.3" x1="184.98032266829074" x2="189.97916517819016" y1="98.17113171792111" y2="98.06355123074" /><path d="M 185.9800911702706 98.14961562048488 a86.0,86.0 0 0,1 -9.607161424134198,41.387399972396054" fill="none" id="id28" stroke="none" /><text fill="#e1ed5e" style="font-size:6.75px; font-family:Arial;" text-anchor="middle"><textPath startOffset="21.466115282336823" xlink:href="#id28">April</textPath></text><path d="M 120.99980553446 99.90962569577887 l 26.32805097825878 -0.11330482488297791 a47.328294785214155,47.328294785214155 0 0,0 -0.0035061312609789555,0.8147014275065186 l -26.326100549708297 -0.3399060808272255" fill="red" stroke="none" /><path d="M 120.9904718944345 100.63252640178507 l 45.20455882166799 1.3621931455162994 a66.22507831311442,66.22507831311442 0 0,0 -0.04414332610217334,1.1391431002369632 l -45.17441336271461 -2.1401134927672687" fill="red" stroke="none" /><path d="M 120.9764740272857 100.99374915477107 l 26.003727482832755 1.23191257850812 a47.032891725709575,47.032891725709575 0 0,0 -0.04527173190896761,0.8083571850639155 l -25.97866940003626 -1.6793414799074589" fill="red" stroke="none" /><path d="M 120.95626037817324 101.35467743843564 l 45.17852883035998 2.920479732726905 a66.27282484167446,66.27282484167446 0 0,0 -0.08338838568345762,1.1377682702698964 l -45.12156388601218 -3.697721139493572" fill="red" stroke="none" /><path d="M 120.76222939487914 103.15116336523771 l 25.922752263987274 3.9343957581239763 a47.21962156327969,47.21962156327969 0 0,0 -0.12888313655862224,0.8025554143791017 l -25.85118737306736 -4.380030402196283" fill="red" stroke="none" /><path d="M 120.64145759157962 103.86396538481128 l 25.573578299751397 4.787230789181797 a47.01779171417908,47.01779171417908 0 0,0 -0.15576337718531919,0.7942341044849308 l -25.487384989590414 -5.226728620734673" fill="red" stroke="none" /><path d="M 120.41448212921028 104.9243191809786 l 25.126015311289358 6.0608208602022735 a46.84666699833095,46.84666699833095 0 0,0 -0.19583844406859147,0.7822772349207344 l -25.017965552925705 -6.492425934520404" fill="red" stroke="none" /><path d="M 120.32669344350535 105.2749913415812 l 25.107471363077558 6.51565363630498 a46.93913762167227,46.93913762167227 0 0,0 -0.20968813310224438,0.780327549173644 l -24.991595153633536 -6.946872118654172" fill="red" stroke="none" /><path d="M 120.23288151984713 105.62410040840565 l 43.5836634711473 12.11487841153267 a66.23611389689039,66.23611389689039 0 0,0 -0.31480247004574363,1.0958686964334112 l -43.36866836421545 -12.863304583470665" fill="red" stroke="none" /><path d="M 120.13307415673323 105.97154293290107 l 59.12921325084651 17.537939450643023 a82.67530445679618,82.67530445679618 0 0,0 -0.4164206564968307,1.3608867993695781 l -58.81856582184355 -18.55315322256466" fill="red" stroke="none" /><path d="M 119.79798401119884 107.00284435728193 l 24.396205136071032 8.629304245300387 a46.87739779806343,46.87739779806343 0 0,0 -0.27562958739370663,0.7584142463100947 l -24.2440512876721 -9.047966288616614" fill="red" stroke="none" /><path d="M 119.67450827220406 107.3425965602758 l 24.404685449808927 9.107915530043654 a47.04885404785642,47.04885404785642 0 0,0 -0.2896993317599062,0.7563135397173035 l -24.244291838455513 -9.5266526365941" fill="red" stroke="none" /><path d="M 119.41010516605496 108.01547362559984 l 41.84714018570543 17.280928959205365 a66.2748677238839,66.2748677238839 0 0,0 -0.44451190907231247,1.0506948463517296 l -41.5434772954408 -17.998698331223256" fill="red" stroke="none" /><path d="M 118.81262510543309 109.33194174019688 l 23.277335012895968 11.546646626400701 a46.98382907920931,46.98382907920931 0 0,0 -0.36562665936471234,0.721416085936739 l -23.075129683744986 -11.945616924040134" fill="red" stroke="none" /><line stroke="#e1ed5e" stroke-width="0.3" x1="174.80103733775053" x2="179.2010983576182" y1="140.37084112569926" y2="142.7455964860345" /><path d="M 175.68104954172406 140.8457921977663 a86.0,86.0 0 0,1 -30.038265399797805,32.042727171017184" fill="none" id="id29" stroke="none" /><text fill="#e1ed5e" style="font-size:6.75px; font-family:Arial;" text-anchor="middle"><textPath startOffset="22.206326154141568" xlink:href="#id29">May</textPath></text><path d="M 117.14729908036423 112.12312394758627 l 14.171340646626552 10.019124198938957 a38.355395283210754,38.355395283210754 0 0,0 -0.38578259786836194,0.5358182869396299 l -13.996778256382587 -10.261576091329719" fill="red" stroke="none" /><path d="M 116.71984013943494 112.70617746262583 l 20.552410454223587 15.618724362092902 a46.81368098853616,46.81368098853616 0 0,0 -0.49308890931391974,0.6373838843421213 l -20.2805147276916 -15.970186240548276" fill="red" stroke="none" /><path d="M 116.27256486870786 113.27417163493432 l 20.077386600715666 16.377914475629495 a46.91018207743109,46.91018207743109 0 0,0 -0.515797556542907,0.6213113843609913 l -19.79249304427922 -16.721087117104258" fill="red" stroke="none" /><path d="M 116.0416608686014 113.55231037782055 l 20.964793696162744 17.71146974771725 a48.44483075821326,48.44483075821326 0 0,0 -0.5436374876547088,0.6323732160985834 l -20.656813698937256 -18.06972006297736" fill="red" stroke="none" /><path d="M 115.56566222782051 114.09645910891815 l 19.170803370796623 17.36132018325209 a46.86378047361104,46.86378047361104 0 0,0 -0.5466405410433794,0.5932703444845334 l -18.86911642175752 -17.688741782537956" fill="red" stroke="none" /><path d="M 115.32070863581623 114.36230785411682 l 33.01118191365792 30.94613758033582 a66.24822164989126,66.24822164989126 0 0,0 -0.7870712992591484,0.8252411106036301 l -32.473604063019806 -31.509785807521954" fill="red" stroke="none" /><path d="M 115.07121518719521 114.62390073753431 l 25.552525164720866 24.79412489045405 a56.604496505036074,56.604496505036074 0 0,0 -0.6845353595935754,0.6934307052075607 l -25.121949180071756 -25.230296089642273" fill="red" stroke="none" /><path d="M 114.55890576462653 115.13401014063108 l 18.126521442894926 18.842553401071182 a47.14598627498968,47.14598627498968 0 0,0 -0.5896933879401238,0.5575919051028387 l -17.799492220563994 -19.151779942919944" fill="red" stroke="none" /><path d="M 114.0293411484842 115.62618273729858 l 17.462191864846577 19.449765900328334 a47.13850681087749,47.13850681087749 0 0,0 -0.6084406068406305,0.5368780933605354 l -17.12480890509936 -19.747467135461157" fill="red" stroke="none" /><path d="M 113.75828350139079 115.86535959552629 l 17.123033297052835 19.74541959369071 a47.13579660586004,47.13579660586004 0 0,0 -0.6175564254911683,0.5262949834041041 l -16.78061139498462 -20.03723896731776" fill="red" stroke="none" /><path d="M 113.48314897796784 116.09983520530334 l 29.39997437804799 35.10565249261627 a66.7904502092108,66.7904502092108 0 0,0 -0.8877718943494867,0.7305758298467768 l -28.791332355153813 -35.60652344132023" fill="red" stroke="none" /><path d="M 113.20401910651253 116.32954008644616 l 22.485925428714253 27.80856477918336 a56.76217439507469,56.76217439507469 0 0,0 -0.765052769504615,0.6078041899418524 l -22.003915166492288 -28.19150288313034" fill="red" stroke="none" /><path d="M 112.63410532772338 116.77436683061366 l 15.693631145608363 20.836515044964834 a47.085444557328415,47.085444557328415 0 0,0 -0.6516065648991928,0.48204295899956184 l -15.332639610290606 -21.103567952704164" fill="red" stroke="none" /><path d="M 112.34349029814194 116.9893568818739 l 15.32996100179162 21.099881164394137 a47.08088743635857,47.08088743635857 0 0,0 -0.6597437406258626,0.47070964165380413 l -14.964489933316873 -21.36063506789216" fill="red" stroke="none" /><path d="M 112.04921762599082 117.19931262002967 l 14.86299811536413 21.21576346215578 a46.90400224404449,46.90400224404449 0 0,0 -0.6652397215248326,0.45755794644441944 l -14.495601509216414 -21.468462197965298" fill="red" stroke="none" /><path d="M 111.7513745106137 117.40417183066458 l 14.66274432632934 21.716006202853183 a47.20269063630033,47.20269063630033 0 0,0 -0.6773030941079748,0.4488795585658795 l -14.286766533481401 -21.96518378251038" fill="red" stroke="none" /><path d="M 111.45004920935366 117.60387380957326 l 19.401401187090684 29.828676888780677 a56.583202960915735,56.583202960915735 0 0,0 -0.8210443638410967,0.5240293593729546 l -18.885075021202656 -30.158220676977443" fill="red" stroke="none" /><line stroke="#e1ed5e" stroke-width="0.3" x1="143.8653032363475" x2="146.44561519142675" y1="172.8068346515853" y2="177.08958963109032" /><path d="M 144.38136562736335 173.6633856474863 a86.0,86.0 0 0,1 -40.68145358897372,12.25698825130547" fill="none" id="id30" stroke="none" /><text fill="#e1ed5e" style="font-size:6.75px; font-family:Arial;" text-anchor="middle"><textPath startOffset="21.466115282336833" xlink:href="#id30">June</textPath></text><path d="M 110.21172684928248 118.3499491758327 l 8.747839964491662 15.71941955713582 a38.98957629455518,38.98957629455518 0 0,0 -0.5892572424189864,0.32131003150944865 l -8.475959910204029 -15.867670240405038" fill="red" stroke="none" /><path d="M 109.89434966115114 118.52300852407294 l 12.234788881159416 22.904496656891165 a46.96740314455954,46.96740314455954 0 0,0 -0.7163850719956237,0.3747788112186466 l -11.838712906637296 -23.11170488705453" fill="red" stroke="none" /><path d="M 109.2508944713604 118.85261126421891 l 19.97335150981708 40.704153833332775 a66.3405217197854,66.3405217197854 0 0,0 -1.029501696511118,0.4942233770404037 l -19.26973714530573 -41.04193148687274" fill="red" stroke="none" /><path d="M 108.92500713936063 119.00905698771935 l 15.208019144538182 32.39102199861804 a56.783545833463705,56.783545833463705 0 0,0 -0.8883434342904967,0.40779490018876313 l -14.648207714480266 -32.64800396914087" fill="red" stroke="none" /><path d="M 108.2653958097858 119.30500536409082 l 10.232769474542241 23.900085869047103 a46.99853218293195,46.99853218293195 0 0,0 -0.746445325939757,0.31201420678132685 l -9.819852689105023 -24.0726851188484" fill="red" stroke="none" /><path d="M 107.93186726928326 119.44442032107085 l 9.862977679502293 24.178403030048703 a47.112707668677885,47.112707668677885 0 0,0 -0.7535316931671259,0.29984581183300935 l -9.445324910293301 -24.344595686287782" fill="red" stroke="none" /><path d="M 107.2578585660854 119.70592522655815 l 9.015551997792072 24.47826613414706 a47.08573730525981,47.08573730525981 0 0,0 -0.7629693037288903,0.27357364716958243 l -8.592863133433447 -24.6298273223566" fill="red" stroke="none" /><path d="M 106.91757812671514 119.82793768551818 l 15.453565665733032 44.29474180506582 a67.91307753028539,67.91307753028539 0 0,0 -1.1070810460951146,0.3755819988058829 l -14.68881488670069 -44.55418679076982" fill="red" stroke="none" /><path d="M 106.57524785965236 119.94407469862006 l 10.147755600094412 30.780223047336694 a53.40986076124124,53.40986076124124 0 0,0 -0.8756130962742998,0.28034366247681236 l -9.616421158729171 -30.950339556473214" fill="red" stroke="none" /><path d="M 105.53697534728816 120.25689768951611 l 6.903124767198997 25.254924101405326 a47.18137358732845,47.18137358732845 0 0,0 -0.7852543328596419,0.20739280637380053 l -6.467379991527858 -25.370008257082713" fill="red" stroke="none" /><path d="M 104.83641907484287 120.43548508189849 l 6.427645540566345 27.15894808190139 a48.90919361268931,48.90919361268931 0 0,0 -0.8209288218055386,0.18684072712816144 l -5.959196569367944 -27.265565542607234" fill="red" stroke="none" /><path d="M 104.13013068566511 120.58985236759428 l 8.883855571541199 44.28849559359804 a66.17071763609869,66.17071763609869 0 0,0 -1.1187022727545861,0.21440195310726595 l -8.120185684214908 -44.43485474505378" fill="red" stroke="none" /><path d="M 103.41894727170886 120.7198165907248 l 4.2228983713997845 25.591994489268867 a46.938061851147225,46.938061851147225 0 0,0 -0.7983139202359527,0.12468021618586829 l -3.7817485875553145 -25.660893012801843" fill="red" stroke="none" /><path d="M 102.70371172650421 120.8252237178851 l 3.369026192341342 25.949779881909986 a47.16756414732296,47.16756414732296 0 0,0 -0.8060545378066245,0.09760197911119112 l -2.921844231483337 -26.003927389746526" fill="red" stroke="none" /><path d="M 102.34483914955558 120.86867818915974 l 2.905431355753149 25.857855527274904 a47.0205730880858,47.0205730880858 0 0,0 -0.8050983510190233,0.08345173593167275 l -2.4599004081285227 -25.904036631662333" fill="red" stroke="none" /><path d="M 101.98527174616119 120.90594882070398 l 4.297424137962501 45.254121639933636 a66.45770979298729,66.45770979298729 0 0,0 -1.1397677053251412,0.09834395350784157 l -3.517812114895819 -45.32138984572014" fill="red" stroke="none" /><path d="M 101.62511606390274 120.93702456842531 l 2.7142934488294683 34.969335351705595 a56.07451787076203,56.07451787076203 0 0,0 -0.9629790150268643,0.06641267094747638 l -2.1119516730236736 -35.01087636716935" fill="red" stroke="none" /><line stroke="#e1ed5e" stroke-width="0.3" x1="102.19456741930631" x2="102.32365962044197" y1="184.97166512339345" y2="189.96999836594603" /><path d="M 102.22038585953345 185.97133177190398 a86.0,86.0 0 0,1 -42.740103519485714,-10.115201625700543" fill="none" id="id31" stroke="none" /><text fill="#e1ed5e" style="font-size:6.75px; font-family:Arial;" text-anchor="middle"><textPath startOffset="22.20632615414155" xlink:href="#id31">July</textPath></text><path d="M 100.54218724476979 120.99299961872073 l 0.6762296292199793 26.182999480945288 a47.19173053333086,47.19173053333086 0 0,0 -0.8122377961175599,0.013983410260925052 l -0.2254321432097515 -26.19076036848537" fill="red" stroke="none" /><path d="M 99.81925306533755 120.99922214144158 l -0.2230015333435975 25.908371532328957 a46.90933123685494,46.90933123685494 0 0,0 -0.807377296627448,-0.013899732354321683 l 0.6689385198637133 -25.900694322695475" fill="red" stroke="none" /><path d="M 99.45781275523022 120.99299961872073 l -1.0922003509744833 42.289009512405165 a63.303111317572885,63.303111317572885 0 0,0 -1.0890536092720788,-0.03750920830380872 l 1.8199743119212053 -42.26394350567526" fill="red" stroke="none" /><path d="M 99.09653310690486 120.98055641714683 l -1.522095629080074 35.34652289117618 a56.37928003225202,56.37928003225202 0 0,0 -0.9692187040904817,-0.05009753619094071 l 2.1303024015840446 -35.31508554822304" fill="red" stroke="none" /><path d="M 98.73552117531835 120.96189622390904 l -1.5722625306367883 26.064180246155193 a47.111558769428356,47.111558769428356 0 0,0 -0.8090563090479919,-0.055797259953047934 l 2.02068160046371 -26.033254641685858" fill="red" stroke="none" /><path d="M 98.01472825383883 120.90594882070398 l -2.471454180584401 26.025703892638607 a47.14278770280691,47.14278770280691 0 0,0 -0.807190941098669,-0.08366864144950524 l 2.919077718288663 -25.97930588273334" fill="red" stroke="none" /><line stroke="#e1ed5e" stroke-width="0.3" x1="58.666819895761336" x2="56.23545636021788" y1="174.27360380694188" y2="178.64263932499728" /><path d="M 58.180547188652646 175.14741091055294 a86.0,86.0 0 0,1 -31.652253787137756,-30.449443065178592" fill="none" id="id32" stroke="none" /><text fill="#e1ed5e" style="font-size:6.75px; font-family:Arial;" text-anchor="middle"><textPath startOffset="22.20632615414155" xlink:href="#id32">August</textPath></text><line stroke="#e1ed5e" stroke-width="0.3" x1="26.63291911575756" x2="22.317208475507996" y1="142.92168965132927" y2="145.44649492493687" /><path d="M 25.769776987707644 143.4266507060508 a86.0,86.0 0 0,1 -11.730757126820373,-40.83630448921669" fill="none" id="id33" stroke="none" /><text fill="#e1ed5e" style="font-size:6.75px; font-family:Arial;" text-anchor="middle"><textPath startOffset="21.46611528233685" xlink:href="#id33">September</textPath></text><line stroke="#e1ed5e" stroke-width="0.3" x1="15.007084014347285" x2="10.007500721073583" y1="101.09737516637583" y2="101.16192664675087" /><path d="M 14.007167355692545 101.11028546245083 a86.0,86.0 0 0,1 10.666146001902534,-42.60595125391555" fill="none" id="id34" stroke="none" /><text fill="#e1ed5e" style="font-size:6.75px; font-family:Arial;" text-anchor="middle"><textPath startOffset="22.20632615414155" xlink:href="#id34">October</textPath></text><line stroke="#e1ed5e" stroke-width="0.3" x1="26.266209847984243" x2="21.928928074336255" y1="57.711370442889674" y2="55.22380399835377" /><path d="M 25.398753493254645 57.213857153982495 a86.0,86.0 0 0,1 29.58750427330803,-30.492523968695096" fill="none" id="id35" stroke="none" /><text fill="#e1ed5e" style="font-size:6.75px; font-family:Arial;" text-anchor="middle"><textPath startOffset="21.46611528233685" xlink:href="#id35">November</textPath></text><line stroke="#e1ed5e" stroke-width="0.3" x1="56.762969772571076" x2="54.21961505331055" y1="26.818313649435495" y2="22.513508569990535" /><path d="M 56.25429882871897 25.957352633546506 a86.0,86.0 0 0,1 42.265352541879196,-11.944610805530505" fill="none" id="id36" stroke="none" /><text fill="#e1ed5e" style="font-size:6.75px; font-family:Arial;" text-anchor="middle"><textPath startOffset="22.20632615414155" xlink:href="#id36">December</textPath></text></svg>