<?xml version="1.0" encoding="utf-8" ?>
<svg baseProfile="full" height="200mm" version="1.1" viewBox="0,0,200,200" width="200mm" xmlns="http://www.w3.org/2000/svg" xmlns:ev="http://www.w3.org/2001/xml-events" xmlns:xlink="http://www.w3.org/1999/xlink"><defs /><rect fill="#1a1a1a" height="200" width="200" x="0" y="0" /><text alignment-baseline="middle" fill="#e1ed5e" style="dominant-baseline: central; font-size:9.0px; font-family:Arial;" text-anchor="middle" x="100.0" y="100.0">2024</text><line stroke="#e1ed5e" stroke-width="0.3" x1="100.0" x2="100.0" y1="15.0" y2="10.0" /><path d="M 100.0 14.0 a86.0,86.0 0 0,1 42.35913384403234,11.155469271406648" fill="none" id="id1" stroke="none" /><text fill="#e1ed5e" style="font-size:6.75px; font-family:Arial;" text-anchor="middle"><textPath startOffset="22.145653131862478" xlink:href="#id1">January</textPath></text><line stroke="#e1ed5e" stroke-width="0.3" x1="143.13028292997686" x2="145.6673583964461" y1="26.7553504044142" y2="22.446841604673864" /><path d="M 143.63769802327073 25.89364864446614 a86.0,86.0 0 0,1 29.32050498858742,28.57503671076993" fill="none" id="id2" stroke="none" /><text fill="#e1ed5e" style="font-size:6.75px; font-family:Arial;" text-anchor="middle"><textPath startOffset="20.669276256404974" xlink:href="#id2">February</textPath></text><line stroke="#e1ed5e" stroke-width="0.3" x1="172.87174338648825" x2="177.1583165268699" y1="56.24261187166439" y2="53.66864786411523" /><path d="M 173.72905801456457 55.72781907015455 a86.0,86.0 0 0,1 12.242430191666344,42.057860355516425" fill="none" id="id3" stroke="none" /><text fill="#e1ed5e" style="font-size:6.75px; font-family:Arial;" text-anchor="middle"><textPath startOffset="22.145653131862474" xlink:href="#id3">March</textPath></text><line stroke="#e1ed5e" stroke-width="0.3" x1="184.99686870605535" x2="189.99668451229388" y1="99.2704041080226" y2="99.22748670261217" /><path d="M 185.99683186730306 99.26182062694052 a86.0,86.0 0 0,1 -10.086455211305974,41.156179273409016" fill="none" id="id4" stroke="none" /><text fill="#e1ed5e" style="font-size:6.75px; font-family:Arial;" text-anchor="middle"><textPath startOffset="21.40746469413373" xlink:href="#id4">April</textPath></text><line stroke="#e1ed5e" stroke-width="0.3" x1="174.33088141563837" x2="178.70328620479359" y1="141.23008692659167" y2="143.65538615756765" /><path d="M 175.20536237346943 141.71514677278685 a86.0,86.0 0 0,1 -30.301960400862466,31.631185727798858" fill="none" id="id5" stroke="none" /><text fill="#e1ed5e" style="font-size:6.75px; font-family:Arial;" text-anchor="middle"><textPath startOffset="22.145653131862474" xlink:href="#id5">May</textPath></text><line stroke="#e1ed5e" stroke-width="0.3" x1="143.1302829299769" x2="145.66735839644613" y1="173.24464959558577" y2="177.55315839532614" /><path d="M 143.63769802327073 174.10635135553383 a86.0,86.0 0 0,1 -40.68552437913181,11.842963189579606" fill="none" id="id6" stroke="none" /><text fill="#e1ed5e" style="font-size:6.75px; font-family:Arial;" text-anchor="middle"><textPath startOffset="21.407464694133747" xlink:href="#id6">June</textPath></text><line stroke="#e1ed5e" stroke-width="0.3" x1="101.45913802915013" x2="101.54496967792366" y1="184.9874750549273" y2="189.98673829345242" /><path d="M 101.47630435890484 185.9873277026323 a86.0,86.0 0 0,1 -42.54439059252881,-10.42667462771756" fill="none" id="id7" stroke="none" /><text fill="#e1ed5e" style="font-size:6.75px; font-family:Arial;" text-anchor="middle"><textPath startOffset="22.145653131862474" xlink:href="#id7">July</textPath></text><line stroke="#e1ed5e" stroke-width="0.3" x1="58.13341422392154" x2="55.67067388415222" y1="173.97424548756322" y2="178.32567169271397" /><path d="M 57.64086615596768 174.84453072859336 a86.0,86.0 0 0,1 -31.369924170532247,-30.572349798747897" fill="none" id="id8" stroke="none" /><text fill="#e1ed5e" style="font-size:6.75px; font-family:Arial;" text-anchor="middle"><textPath startOffset="22.145653131862474" xlink:href="#id8">August</textPath></text><line stroke="#e1ed5e" stroke-width="0.3" x1="26.387840678322732" x2="22.057713659400548" y1="142.50000000000003" y2="145.00000000000006" /><path d="M 25.521815274538298 143.00000000000003 a86.0,86.0 0 0,1 -11.493303480769221,-40.785679425670985" fill="none" id="id9" stroke="none" /><text fill="#e1ed5e" style="font-size:6.75px; font-family:Arial;" text-anchor="middle"><textPath startOffset="21.40746469413373" xlink:href="#id9">September</textPath></text><path d="M 79.13060592940153 102.33845913500099 l -15.405074407314927 1.7261707192499416 a36.50148324667369,36.50148324667369 0 0,0 -0.06442965022974961,-0.6232984201058347 l 15.432436450026342 -1.4614677768611755" fill="#ff4d07" stroke="none" /><path d="M 79.0935383218832 101.97986365728391 l -15.22929645987551 1.4422302085900403 a36.29743438088055,36.29743438088055 0 0,0 -0.053420104860928075,-0.6208225935178721 l 15.25181018743418 -1.1805865676965062" fill="#ff4906" stroke="none" /><path d="M 79.06263194458094 101.62068470465958 l -15.732732391494407 1.2178129878553594 a36.77979521336594,36.77979521336594 0 0,0 -0.043323163939939825,-0.6299092955592221 l 15.751319516599414 -0.947560268141794" fill="#ff5107" stroke="none" /><path d="M 79.01933749520258 100.90099992219065 l -15.896699464527124 0.6826726742948181 a36.91135116342185,36.91135116342185 0 0,0 -0.021751882096028533,-0.6332823138407037 l 15.906076033620002 -0.40968409588999455" fill="#ff5307" stroke="none" /><path d="M 79.00696218219943 100.54070618675478 l -15.879214734947686 0.4089922441197818 a36.88448095640301,36.88448095640301 0 0,0 -0.010869625397447633,-0.6331011863626772 l 15.8838957919438 -0.13634414178805224" fill="#ff5307" stroke="none" /><line stroke="#e1ed5e" stroke-width="0.3" x1="15.003131293944662" x2="10.003315487706104" y1="100.72959589197737" y2="100.7725132973878" /><path d="M 14.003168132696942 100.73817937305945 a86.0,86.0 0 0,1 10.791469493833604,-42.45332614584628" fill="none" id="id10" stroke="none" /><text fill="#e1ed5e" style="font-size:6.75px; font-family:Arial;" text-anchor="middle"><textPath startOffset="22.145653131862435" xlink:href="#id10">October</textPath></text><path d="M 79.00077361379809 99.81974689727619 l -31.918828560799792 -0.27398475437048053 a52.92000445393697,52.92000445393697 0 0,0 0.015595193683908921,-0.9083418482072888 l 31.909421935517216 0.8218735185468217" fill="#baff1f" stroke="none" /><path d="M 79.00696218219943 99.45929381324524 l -19.156002508674046 -0.4933906736045199 a40.16235545200867,40.16235545200867 0 0,0 0.02366770093630269,-0.6890592890336685 l 19.144710120740893 0.822156227202327" fill="#ff880c" stroke="none" /><path d="M 79.01933749520258 99.09900007780938 l -38.87221077068324 -1.669339987321876 a59.908038580654434,59.908038580654434 0 0,0 0.05294276070625753,-1.0270754139291316 l 38.837826420520415 2.3363871946277195" fill="#60ff29" stroke="none" /><path d="M 79.03789590574601 98.7389718711861 l -10.973789280618275 -0.6601559127993013 a31.99362801829389,31.99362801829389 0 0,0 0.0376855059586201,-0.5479389858066586 l 10.96083981349459 0.8484383227602849" fill="#ff0000" stroke="none" /><path d="M 79.0935383218832 98.0201363427161 l -31.792208260405143 -3.010755176494656 a52.93445087684713,52.93445087684713 0 0,0 0.0934358785381724,-0.9039073666606993 l 31.73583998938531 3.556067065438268" fill="#baff1f" stroke="none" /><path d="M 79.13060592940154 97.66154086499901 l -15.95997507081 -1.7883484960065967 a37.059856618414926,37.059856618414926 0 0,0 0.0762690326935103,-0.6316170007638829 l 15.926923951856821 2.062059173693916" fill="#ff5608" stroke="none" /><path d="M 79.17382384314186 97.30363454192245 l -16.101818600616607 -2.084702787488722 a37.2362110099409,37.2362110099409 0 0,0 0.08751481885942497,-0.6332136338085376 l 16.063659265201974 2.3608047294973264" fill="#ff5908" stroke="none" /><path d="M 79.22317932658666 96.9465228501225 l -15.883739474222475 -2.3343627161016176 a37.054358566299015,37.054358566299015 0 0,0 0.09789145347770828,-0.6285333539173963 l 15.841326528606498 2.606684251950464" fill="#ff5607" stroke="none" /><path d="M 79.2786578344484 96.59031103205396 l -15.930457056329908 -2.6213506463692076 a37.144687709422925,37.144687709422925 0 0,0 0.10893154151327483,-0.6282881840178979 l 15.8831106973244 2.8944318633076977" fill="#ff5708" stroke="none" /><path d="M 79.34024301695615 96.23510406497455 l -11.891274814083953 -2.166986390331644 a33.087110768084735,33.087110768084735 0 0,0 0.10662511730224705,-0.5579076692113049 l 11.852323404499547 2.370796624576263" fill="#ff1302" stroke="none" /><path d="M 79.48165901384962 95.52812308129327 l -12.69248461067728 -2.7662679458266046 a33.99043509434489,33.99043509434489 0 0,0 0.1291460729265713,-0.5690414263641081 l 12.643127676193046 2.983743706129721" fill="#ff2203" stroke="none" /><path d="M 79.56144815229197 95.17655741523228 l -15.403812633689595 -3.6352578391434918 a36.82695622066572,36.82695622066572 0 0,0 0.15048629543672973,-0.6140354389560929 l 15.339138811736568 3.8991491027077023" fill="#ff5207" stroke="none" /><path d="M 79.64726062577567 94.8264132398404 l -15.567414923108583 -3.957175997551679 a37.06249200042829,37.06249200042829 0 0,0 0.16203460158238214,-0.6152717746608104 l 15.497190840721474 4.223828276585274" fill="#ff5608" stroke="none" /><path d="M 79.73907114497095 94.47779374421319 l -12.575614108907876 -3.427539546654826 a34.03434300454172,34.03434300454172 0 0,0 0.15847282763023757,-0.5623641589401377 l 12.514922789203057 3.642911629497977" fill="#ff2303" stroke="none" /><path d="M 79.94057633289273 93.78553927170692 l -39.183886542548244 -12.139268213366035 a62.021199364905605,62.021199364905605 0 0,0 0.32379580096222965,-1.0142857347384941 l 38.969726025808754 12.81012298179592" fill="#46ff2c" stroke="none" /><path d="M 80.41425534168474 92.42381321644754 l -15.11101847384599 -5.845266567332891 a37.20216098426671,37.20216098426671 0 0,0 0.2355097416843669,-0.593638395394491 l 15.008450057195493 6.103805979940965" fill="#ff5808" stroke="none" /><path d="M 80.5471966667186 92.08871423366112 l -15.0228940680431 -6.109680233408177 a37.21775381284792,37.21775381284792 0 0,0 0.24576859896409242,-0.5897551685968684 l 14.915799624542528 6.366667911446309" fill="#ff5908" stroke="none" /><path d="M 80.68587082218212 91.75594674310238 l -14.863132694746566 -6.344187530885644 a37.16048974903574,37.16048974903574 0 0,0 0.2554626498769618,-0.5845485366576945 l 14.752036162852628 6.598398137319205" fill="#ff5808" stroke="none" /><path d="M 80.83023694016515 91.42560881287825 l -27.695985283562756 -12.388061938626787 a51.340264986030995,51.340264986030995 0 0,0 0.36675415839824504,-0.8014240246875852 l 27.479246660309464 12.861674945529044" fill="#cfff1d" stroke="none" /><path d="M 80.9802524753101 91.09779779509293 l -35.89617904828585 -16.801224298932926 a60.63353136183616,60.63353136183616 0 0,0 0.4493254830019198,-0.938917445453027 l 35.60247430732403 17.41495424645104" fill="#57ff2a" stroke="none" /><path d="M 81.1358732173502 90.77261029715801 l -14.498820826015352 -7.092099811180991 a37.14043633476648,37.14043633476648 0 0,0 0.285061845323398,-0.5703146460066576 l 14.37493906748021 7.339946313351419" fill="#ff5708" stroke="none" /><path d="M 81.29705330413844 90.45014215332179 l -14.60777749312289 -7.458835272524038 a37.401871445394164,37.401871445394164 0 0,0 0.2968852464373242,-0.569316605830632 l 14.477584177710627 7.708498121459156" fill="#ff5c08" stroke="none" /><path d="M 81.63589988554816 89.8137432299009 l -17.50854987690323 -9.71169747532968 a41.02164795026456,41.02164795026456 0 0,0 0.34686076132412064,-0.6128697297034963 l 17.33925575055774 10.010823975132281" fill="#ff960d" stroke="none" /><line stroke="#e1ed5e" stroke-width="0.3" x1="26.387840678322718" x2="22.05771365940052" y1="57.49999999999999" y2="54.99999999999999" /><path d="M 25.521815274538284 56.99999999999999 a86.0,86.0 0 0,1 29.574782752854787,-30.34633250058573" fill="none" id="id11" stroke="none" /><text fill="#e1ed5e" style="font-size:6.75px; font-family:Arial;" text-anchor="middle"><textPath startOffset="21.40746469413373" xlink:href="#id11">November</textPath></text><path d="M 81.81346652052679 89.5 l -14.226390298905741 -8.213610268669912 a37.42722053733982,37.42722053733982 0 0,0 0.3260201234785761,-0.553653444473496 l 14.083296465297385 8.45661488143698" fill="#ff5c08" stroke="none" /><path d="M 81.99639281039701 89.18935116829357 l -26.578053815296094 -15.959357666573116 a52.001516765125885,52.001516765125885 0 0,0 0.4661119691479358,-0.7613588719287394 l 26.300173881692768 16.4132536546264" fill="#c6ff1e" stroke="none" /><path d="M 82.37810715431573 88.57770195909679 l -13.73748372833227 -8.904470981135194 a37.37095179395727,37.37095179395727 0 0,0 0.35355689598718326,-0.5353302031068243 l 13.58260239342436 9.13898106258108" fill="#ff5b08" stroke="none" /><path d="M 82.576782715395 88.27688183743585 l -13.594811678636212 -9.1471960145547 a37.385667502615476,37.385667502615476 0 0,0 0.36283727300205937,-0.5293904248332784 l 13.435784668818838 9.379221174458014" fill="#ff5b08" stroke="none" /><path d="M 82.78059297857968 87.97951657250589 l -16.78359165116608 -11.716250451929312 a41.46849953869178,41.46849953869178 0 0,0 0.4124830209642629,-0.5802090256501617 l 16.579993531671846 12.002636704288994" fill="#ff9d0e" stroke="none" /><path d="M 82.98947788004972 87.6856937992154 l -10.72035855672459 -7.760712864590992 a34.234604329233505,34.234604329233505 0 0,0 0.3487006060176239,-0.4730793419533533 l 10.585555931123148 7.94359851581321" fill="#ff2703" stroke="none" /><path d="M 83.42222388311158 87.10902102172516 l -38.47358119490659 -29.917289442534816 a69.73664594070334,69.73664594070334 0 0,0 0.7429727957809147,-0.9387218564628534 l 37.954341968484115 30.57333124291235" fill="#38ff80" stroke="none" /><path d="M 83.8745106332314 86.54754324733833 l -9.259498504671408 -7.724602978073143 a33.058515817747576,33.058515817747576 0 0,0 0.3672729267936456,-0.4326465842682758 l 9.125531014370647 7.882416344790975" fill="#ff1202" stroke="none" /><path d="M 84.34580500576568 86.00192230759919 l -12.096307387601195 -10.816592655525795 a37.22711709118135,37.22711709118135 0 0,0 0.4300659141595079,-0.4727177761206368 l 11.908843772599822 11.02264800720409" fill="#ff5908" stroke="none" /><path d="M 84.58840730492382 85.73525988315684 l -11.961887744393856 -11.07174471559613 a37.29939537089676,37.29939537089676 0 0,0 0.4389679986229262,-0.4661688025713344 l 11.770063912034658 11.275454978111975" fill="#ff5a08" stroke="none" /><path d="M 85.08716467003674 85.21462403516908 l -34.75017073863763 -34.45316251702282 a69.93459690023872,69.93459690023872 0 0,0 0.8525629461387719,-0.8452761271371637 l 34.153615872368874 35.04461865438865" fill="#38ff82" stroke="none" /><path d="M 85.60350026404147 84.71141617570332 l -11.198007194568667 -11.891895585676654 a37.334397624346224,37.334397624346224 0 0,0 0.4703604817775753,-0.4353586398590647 l 10.992216941477139 12.082371971668085" fill="#ff5a08" stroke="none" /><path d="M 86.40962598614128 83.9905735841838 l -10.501810785747441 -12.37110669918288 a37.22751708494583,37.22751708494583 0 0,0 0.4907396287875732,-0.40939245209430936 l 10.28789682279796 12.549561335189072" fill="#ff5908" stroke="none" /><path d="M 86.68645165197937 83.75963576809568 l -10.313460134131715 -12.580744418479973 a37.26783913313133,37.26783913313133 0 0,0 0.49823414891196455,-0.4013421622186089 l 10.095975214864506 12.755934874491981" fill="#ff5908" stroke="none" /><path d="M 87.25179093698888 83.31218511350988 l -38.244627189033366 -50.06344465947034 a84.0,84.0 0 0,0 1.1533880443569906,-0.8655238909439964 l 37.37958615576562 50.71258757767834" fill="#4dd2ff" stroke="none" /><path d="M 87.83215693770416 82.88440491214696 l -9.481008415339542 -13.33622567538777 a37.36289814906306,37.36289814906306 0 0,0 0.525936004801794,-0.3671441776001999 l 9.250677319363982 13.497014668793096" fill="#ff5b08" stroke="none" /><path d="M 88.12776184653039 82.6780497279521 l -9.124962769325363 -13.313593383261903 a37.140530174576334,37.140530174576334 0 0,0 0.5289938303457883,-0.3559306573012022 l 8.895072650882584 13.468273714620215" fill="#ff5708" stroke="none" /><path d="M 88.4268655584334 82.4767994020092 l -8.916551654726003 -13.50079566404486 a37.17950484327903,37.17950484327903 0 0,0 0.5355873524124474,-0.347161251050933 l 8.68347867005653 13.651870756799699" fill="#ff5808" stroke="none" /><path d="M 88.72937992617638 82.28071324371311 l -8.787036161074704 -13.814680333122336 a37.37245849597401,37.37245849597401 0 0,0 0.5442780192089067,-0.3396697386146117 l 8.548594013076098 13.963485868578482" fill="#ff5b08" stroke="none" /><path d="M 89.03521579738668 82.08984904055464 l -27.96598440315074 -45.68033379722573 a74.56107896096972,74.56107896096972 0 0,0 1.0973517686938283,-0.6589282076234048 l 27.177699877899478 46.15367600538506" fill="#3fffbe" stroke="none" /><line stroke="#e1ed5e" stroke-width="0.3" x1="56.869717070023135" x2="54.33264160355391" y1="26.7553504044142" y2="22.446841604673864" /><path d="M 56.362301976729285 25.89364864446614 a86.0,86.0 0 0,1 42.16139366436587,-11.88097634709845" fill="none" id="id12" stroke="none" /><text fill="#e1ed5e" style="font-size:6.75px; font-family:Arial;" text-anchor="middle"><textPath startOffset="22.145653131862474" xlink:href="#id12">December</textPath></text><path d="M 89.97174638481275 81.54914285379989 l -7.782001003099867 -14.31800534066374 a37.296159564373525,37.296159564373525 0 0,0 0.5651454810282213,-0.30090813670171423 l 7.535066706285084 14.44948394508803" fill="#ff5a08" stroke="none" /><path d="M 90.28995756902619 81.37971332152246 l -7.518766565333436 -14.4182262755591 a37.260907096382994,37.260907096382994 0 0,0 0.5696887125194182,-0.29088711580520316 l 7.270150631100435 14.545171343037136" fill="#ff5908" stroke="none" /><path d="M 90.61103034731259 81.2157712731953 l -7.254955850819063 -14.514771603894605 a37.2269214304673,37.2269214304673 0 0,0 0.5740741407992221,-0.2808084294869513 l 7.0047214607577875 14.63717378347877" fill="#ff5908" stroke="none" /><path d="M 91.26138138417902 80.90454125486306 l -6.346009334174631 -13.867175667512639 a36.250258865445076,36.250258865445076 0 0,0 0.5680702064586789,-0.2540905777876491 l 6.107025724860333 13.974069996210133" fill="#ff4906" stroke="none" /><path d="M 93.27111125876988 80.10723608172694 l -5.147540595496949 -15.217789112564173 a37.064814958684266,37.064814958684266 0 0,0 0.6044693503163097,-0.19870108173585638 l 4.885548507532878 15.303911115702059" fill="#ff5608" stroke="none" /><path d="M 93.61358852112211 79.99465700312896 l -16.373338037029036 -51.289248197961875 a74.83932743995747,74.83932743995747 0 0,0 1.2272201635017925,-0.380195943692889 l 15.490477240655627 51.56276072946141" fill="#3fffc2" stroke="none" /><path d="M 94.30408787586887 79.78721728523814 l -4.420816430388581 -15.687917928144708 a37.29890753490545,37.29890753490545 0 0,0 0.6177739888313244,-0.16837704777487908 l 4.150861040622579 15.761495470063727" fill="#ff5a08" stroke="none" /><path d="M 94.6519064749342 79.69241777938228 l -4.156325145016304 -15.782243564448674 a37.32036306699935,37.32036306699935 0 0,0 0.6209303481198413,-0.15783806636282666 l 3.884789503671084 15.851266862646764" fill="#ff5a08" stroke="none" /><path d="M 95.00130118170881 79.60360301121753 l -3.8543253777662287 -15.726962833046498 a37.19238043246634,37.19238043246634 0 0,0 0.621410019982168,-0.14665107270402994 l 3.583783204044155 15.79081004939676" fill="#ff5808" stroke="none" /><path d="M 95.35216902796891 79.52079915486377 l -3.597834938687698 -15.852724584955252 a37.25586949420075,37.25586949420075 0 0,0 0.624900830351942,-0.1361942274776397 l 3.325171691716638 15.912150270566606" fill="#ff5908" stroke="none" /><path d="M 95.70440661134978 79.44403061299748 l -3.3344605529727387 -15.956600834282677 a37.301280236961816,37.301280236961816 0 0,0 0.6279111265695201,-0.12559981099062273 l 3.0600529408722417 16.011490041936167" fill="#ff5a08" stroke="none" /><path d="M 96.05791012581881 79.37332000966035 l -10.238436475207624 -53.57182598973444 a75.54141656879888,75.54141656879888 0 0,0 1.2758055540621451,-0.2324942712691996 l 9.31729618759444 53.739688434935005" fill="#40ffca" stroke="none" /><path d="M 97.12497278360702 79.19773525538626 l -2.2234522948575086 -16.087793194067146 a37.24071519245936,37.24071519245936 0 0,0 0.6340181719025081,-0.0820863458387931 l 1.9469563010642064 16.123591136106334" fill="#ff5908" stroke="none" /><path d="M 97.48249496171623 79.15144685158666 l -1.5793680756857398 -13.079433314377265 a34.17444417589361,34.17444417589361 0 0,0 0.5830226871890638,-0.06532890816848705 l 1.3546094868958767 13.104617983052723" fill="#ff2603" stroke="none" /><path d="M 97.84075906011542 79.11130261209362 l -1.685491804127705 -16.305604250029656 a37.39248646729247,37.39248646729247 0 0,0 0.639056177106246,-0.06051928439616411 l 1.4053360636364434 16.332135289931003" fill="#ff5b08" stroke="none" /><path d="M 98.1996594967304 79.07731436759882 l -1.3956236807019633 -16.219262678049763 a37.27919676389821,37.27919676389821 0 0,0 0.6380618650866859,-0.049390023742972286 l 1.1169928208400601 16.240830468787788" fill="#ff5a08" stroke="none" /><path d="M 98.5590905019552 79.04949213459386 l -1.6503343369806893 -23.99549906109962 a45.05218448738181,45.05218448738181 0 0,0 0.772013477931126,-0.046442413753753096 l 1.2381765069170796 24.020293452678064" fill="#ffd413" stroke="none" /><path d="M 99.27912038922189 79.0123766808444 l -0.5230085409073691 -15.226823016143925 a36.23580247636574,36.23580247636574 0 0,0 0.621852417449742,-0.01601671241112202 l 0.2615428093868833 15.233557445905092" fill="#ff4806" stroke="none" /></svg>