<?xml version="1.0" encoding="utf-8" ?>
<svg baseProfile="full" height="200mm" version="1.1" viewBox="0,0,200,200" width="200mm" xmlns="http://www.w3.org/2000/svg" xmlns:ev="http://www.w3.org/2001/xml-events" xmlns:xlink="http://www.w3.org/1999/xlink"><defs /><rect fill="#1a1a1a" height="200" width="200" x="0" y="0" /><text alignment-baseline="middle" fill="#e1ed5e" style="dominant-baseline: central; font-size:9.0px; font-family:Arial;" text-anchor="middle" x="100.0" y="100.0">2024</text><line stroke="#e1ed5e" stroke-width="0.3" x1="100.0" x2="100.0" y1="15.0" y2="10.0" /><path d="M 100.0 14.0 a86.0,86.0 0 0,1 42.35913384403234,11.155469271406648" fill="none" id="id1" stroke="none" /><text fill="#e1ed5e" style="font-size:6.75px; font-family:Arial;" text-anchor="middle"><textPath startOffset="22.145653131862478" xlink:href="#id1">January</textPath></text><line stroke="#e1ed5e" stroke-width="0.3" x1="143.13028292997686" x2="145.6673583964461" y1="26.7553504044142" y2="22.446841604673864" /><path d="M 143.63769802327073 25.89364864446614 a86.0,86.0 0 0,1 29.32050498858742,28.57503671076993" fill="none" id="id2" stroke="none" /><text fill="#e1ed5e" style="font-size:6.75px; font-family:Arial;" text-anchor="middle"><textPath startOffset="20.669276256404974" xlink:href="#id2">February</textPath></text><line stroke="#e1ed5e" stroke-width="0.3" x1="172.87174338648825" x2="177.1583165268699" y1="56.24261187166439" y2="53.66864786411523" /><path d="M 173.72905801456457 55.72781907015455 a86.0,86.0 0 0,1 12.242430191666344,42.057860355516425" fill="none" id="id3" stroke="none" /><text fill="#e1ed5e" style="font-size:6.75px; font-family:Arial;" text-anchor="middle"><textPath startOffset="22.145653131862474" xlink:href="#id3">March</textPath></text><line stroke="#e1ed5e" stroke-width="0.3" x1="184.99686870605535" x2="189.99668451229388" y1="99.2704041080226" y2="99.22748670261217" /><path d="M 185.99683186730306 99.26182062694052 a86.0,86.0 0 0,1 -10.086455211305974,41.156179273409016" fill="none" id="id4" stroke="none" /><text fill="#e1ed5e" style="font-size:6.75px; font-family:Arial;" text-anchor="middle"><textPath startOffset="21.40746469413373" xlink:href="#id4">April</textPath></text><line stroke="#e1ed5e" stroke-width="0.3" x1="174.33088141563837" x2="178.70328620479359" y1="141.23008692659167" y2="143.65538615756765" /><path d="M 175.20536237346943 141.71514677278685 a86.0,86.0 0 0,1 -30.301960400862466,31.631185727798858" fill="none" id="id5" stroke="none" /><text fill="#e1ed5e" style="font-size:6.75px; font-family:Arial;" text-anchor="middle"><textPath startOffset="22.145653131862474" xlink:href="#id5">May</textPath></text><line stroke="#e1ed5e" stroke-width="0.3" x1="143.1302829299769" x2="145.66735839644613" y1="173.24464959558577" y2="177.55315839532614" /><path d="M 143.63769802327073 174.10635135553383 a86.0,86.0 0 0,1 -40.68552437913181,11.842963189579606" fill="none" id="id6" stroke="none" /><text fill="#e1ed5e" style="font-size:6.75px; font-family:Arial;" text-anchor="middle"><textPath startOffset="21.407464694133747" xlink:href="#id6">June</textPath></text><line stroke="#e1ed5e" stroke-width="0.3" x1="101.45913802915013" x2="101.54496967792366" y1="184.9874750549273" y2="189.98673829345242" /><path d="M 101.47630435890484 185.9873277026323 a86.0,86.0 0 0,1 -42.54439059252881,-10.42667462771756" fill="none" id="id7" stroke="none" /><text fill="#e1ed5e" style="font-size:6.75px; font-family:Arial;" text-anchor="middle"><textPath startOffset="22.145653131862474" xlink:href="#id7">July</textPath></text><line stroke="#e1ed5e" stroke-width="0.3" x1="58.13341422392154" x2="55.67067388415222" y1="173.97424548756322" y2="178.32567169271397" /><path d="M 57.64086615596768 174.84453072859336 a86.0,86.0 0 0,1 -31.369924170532247,-30.572349798747897" fill="none" id="id8" stroke="none" /><text fill="#e1ed5e" style="font-size:6.75px; font-family:Arial;" text-anchor="middle"><textPath startOffset="22.145653131862474" xlink:href="#id8">August</textPath></text><line stroke="#e1ed5e" stroke-width="0.3" x1="26.387840678322732" x2="22.057713659400548" y1="142.50000000000003" y2="145.00000000000006" /><path d="M 25.521815274538298 143.00000000000003 a86.0,86.0 0 0,1 -11.493303480769221,-40.785679425670985" fill="none" id="id9" stroke="none" /><text fill="#e1ed5e" style="font-size:6.75px; font-family:Arial;" text-anchor="middle"><textPath startOffset="21.40746469413373" xlink:href="#id9">September</textPath></text><path d="M 79.13060592940153 102.33845913500099 l -9.92355398292338 1.1119549223393952 a30.985658085539946,30.985658085539946 0 0,0 -0.054693533933908814,-0.5291103268362831 l 9.941179909338956 -0.9414400732201806" fill="#ff3805" stroke="none" /><path d="M 79.0935383218832 101.97986365728391 l -9.810322335720548 0.9290477249464112 a30.85421503753422,30.85421503753422 0 0,0 -0.04540914339595582,-0.5277230781536972 l 9.824825101814245 -0.760503599417052" fill="#ff3605" stroke="none" /><path d="M 79.06263194458094 101.62068470465958 l -10.134622855943368 0.7844839048845774 a31.164939519211742,31.164939519211742 0 0,0 -0.03670938829693278,-0.5337464492341276 l 10.146596205405366 -0.6103940314961064" fill="#ff3a05" stroke="none" /><path d="M 79.03789590574601 101.26102812881392 l -25.141756466252875 1.5124656365209412 a46.187208469975886,46.187208469975886 0 0,0 -0.040817198887651264,-0.7918427540181184 l 25.1640152545971 -1.080651089126092" fill="#edff1a" stroke="none" /><path d="M 79.01933749520258 100.90099992219065 l -10.24024624065675 0.4397602346415469 a31.24968448944926,31.24968448944926 0 0,0 -0.018415458419365458,-0.5361459788522075 l 10.246286386072963 -0.2639079912252195" fill="#ff3c05" stroke="none" /><path d="M 79.00696218219943 100.54070618675478 l -10.228983026129464 0.2634623180523183 a31.232375390977317,31.232375390977317 0 0,0 -0.00920398530681919,-0.5360860014900023 l 10.23199844303495 -0.08782940059326365" fill="#ff3b05" stroke="none" /><line stroke="#e1ed5e" stroke-width="0.3" x1="15.003131293944662" x2="10.003315487706104" y1="100.72959589197737" y2="100.7725132973878" /><path d="M 14.003168132696942 100.73817937305945 a86.0,86.0 0 0,1 10.791469493833604,-42.45332614584628" fill="none" id="id10" stroke="none" /><text fill="#e1ed5e" style="font-size:6.75px; font-family:Arial;" text-anchor="middle"><textPath startOffset="22.145653131862435" xlink:href="#id10">October</textPath></text><path d="M 79.00077361379809 100.18025310272382 l -25.668440979163595 0.22033269433285851 a46.66938660733826,46.66938660733826 0 0,0 0.0,-0.8011715941133427 l 25.668440979163595 0.22033269433284908" fill="#e7ff1a" stroke="none" /><path d="M 79.00077361379809 99.81974689727619 l -20.56129103436002 -0.17649395443376933 a41.56204851457183,41.56204851457183 0 0,0 0.012248075244380416,-0.713388979320061 l 20.555231527516977 0.5294298497228828" fill="#ffd313" stroke="none" /><path d="M 79.00696218219943 99.45929381324524 l -12.339805700748707 -0.3178296225470022 a33.34389810397018,33.34389810397018 0 0,0 0.019649579799131206,-0.5720760762796264 l 12.332531433952726 0.5296119633907672" fill="#ff5c08" stroke="none" /><path d="M 79.01933749520258 99.09900007780938 l -25.040481585423677 -1.0753460218390893 a46.06356094206542,46.06356094206542 0 0,0 0.040707927383578174,-0.7897229160311595 l 25.01833206858353 1.505040731246961" fill="#efff19" stroke="none" /><path d="M 79.03789590574601 98.7389718711861 l -7.06903371214695 -0.4252555141635158 a28.0818133183385,28.0818133183385 0 0,0 0.03307775356180243,-0.4809432772195761 l 7.060691997420084 0.5465422155374169" fill="#ff0a01" stroke="none" /><path d="M 79.06263194458094 98.37931529534042 l -16.90145571972029 -1.3082795649829684 a37.952014655073235,37.952014655073235 0 0,0 0.05585520401478455,-0.6491221368472392 l 16.87650689300776 1.5982227492058882" fill="#ffa00e" stroke="none" /><path d="M 79.0935383218832 98.0201363427161 l -20.479725483095716 -1.9394512959394594 a41.571354529837876,41.571354529837876 0 0,0 0.0733786025579829,-0.7098714160463625 l 20.44341448805607 2.2907272342687346" fill="#ffd313" stroke="none" /><path d="M 79.13060592940154 97.66154086499901 l -10.281006763984841 -1.1520082520324897 a31.345347896221423,31.345347896221423 0 0,0 0.0645085972161707,-0.5342237243377291 l 10.259716080509003 1.3283256532936552" fill="#ff3d05" stroke="none" /><path d="M 79.17382384314186 97.30363454192245 l -10.37237872934814 -1.34291208877069 a31.45895087392613,31.45895087392613 0 0,0 0.07393674900231381,-0.5349694842304162 l 10.347797463790618 1.5207698812011732" fill="#ff3f05" stroke="none" /><path d="M 79.22317932658666 96.9465228501225 l -10.231897747166496 -1.5037366140833657 a31.341806192005617,31.341806192005617 0 0,0 0.08279984005828948,-0.5316343697717362 l 10.204576414969939 1.6791591657865519" fill="#ff3d05" stroke="none" /><path d="M 79.2786578344484 96.59031103205396 l -10.261992015829987 -1.6886068810588741 a31.399993910176956,31.399993910176956 0 0,0 0.09208449312861804,-0.5311188858640865 l 10.231492705209135 1.8645187998435533" fill="#ff3e05" stroke="none" /><path d="M 79.34024301695615 96.23510406497455 l -7.660054370610934 -1.3959170761619508 a28.786206871399976,28.786206871399976 0 0,0 0.09276520714859149,-0.48538676264681463 l 7.634962871180183 1.52720640384208" fill="#ff1502" stroke="none" /><path d="M 79.407916724674 95.88100663000787 l -6.327798285120552 -1.2657368773508177 a27.453148144887145,27.453148144887145 0 0,0 0.09640276139436979,-0.4613221114645316 l 6.305137812901815 1.3741754401007584" fill="#ff0000" stroke="none" /><path d="M 79.48165901384962 95.52812308129327 l -8.176173180421133 -1.7819588900269117 a29.368105243242567,29.368105243242567 0 0,0 0.11158361024010673,-0.4916579752757085 l 8.144378708623364 1.9220511992416283" fill="#ff1e03" stroke="none" /><path d="M 79.56144815229197 95.17655741523228 l -9.922741180702884 -2.3417399004224344 a31.19531943101575,31.19531943101575 0 0,0 0.127473691499507,-0.5201361618218749 l 9.881079962687078 2.5117318868524268" fill="#ff3b05" stroke="none" /><path d="M 79.64726062577567 94.8264132398404 l -10.028129581164507 -2.549111324836329 a31.347045541749367,31.347045541749367 0 0,0 0.1370470726869486,-0.5203900574365722 l 9.982893027672832 2.7208818866456856" fill="#ff3d05" stroke="none" /><path d="M 79.73907114497095 94.47779374421319 l -8.100888199469052 -2.2079331018150117 a29.396389593294693,29.396389593294693 0 0,0 0.13687730009501994,-0.4857292502253897 l 8.061792407299452 2.3466702759434144" fill="#ff1f03" stroke="none" /><path d="M 79.94057633289273 93.78553927170692 l -25.241255127017414 -7.819805360454635 a47.42480494275365,47.42480494275365 0 0,0 0.24759199852890168,-0.7755784089755786 l 25.103298412711254 8.251952803121606" fill="#ddff1b" stroke="none" /><path d="M 80.41425534168474 92.42381321644754 l -9.73413068949273 -3.7653708636396988 a31.437016720350265,31.437016720350265 0 0,0 0.1990132694245355,-0.5016434440394745 l 9.668058745102064 3.931915324892756" fill="#ff3f05" stroke="none" /><path d="M 80.5471966667186 92.08871423366112 l -9.677363206579257 -3.935699368374141 a31.447061220758428,31.447061220758428 0 0,0 0.20766165031420625,-0.4983123641847014 l 9.608375711728572 4.1012442420001065" fill="#ff3f05" stroke="none" /><path d="M 80.68587082218212 91.75594674310238 l -9.574449025811564 -4.086762957187583 a31.410173178967995,31.410173178967995 0 0,0 0.21593165557247943,-0.494093885520089 l 9.502883488222107 4.250518912483538" fill="#ff3e05" stroke="none" /><path d="M 80.83023694016515 91.42560881287825 l -17.841043659041382 -7.980071899775299 a40.5444208501916,40.5444208501916 0 0,0 0.2896329995706521,-0.6329003744960956 l 17.701426194615685 8.285161256486067" fill="#ffc412" stroke="none" /><path d="M 80.9802524753101 91.09779779509293 l -23.12339824838509 -10.822917949068529 a46.53090479175559,46.53090479175559 0 0,0 0.3448178062614294,-0.7205365955180307 l 22.934201184163758 11.218267046651647" fill="#e9ff1a" stroke="none" /><path d="M 81.1358732173502 90.77261029715801 l -9.339768660083683 -4.568548873422949 a31.397255283618627,31.397255283618627 0 0,0 0.24098153959650856,-0.4821245063267026 l 9.25996720727543 4.728205235913422" fill="#ff3e05" stroke="none" /><path d="M 81.29705330413844 90.45014215332179 l -9.409955751638893 -4.8047904553760965 a31.565665079296956,31.565665079296956 0 0,0 0.2505591269599198,-0.48048016340489463 l 9.326088555704034 4.9656168618854775" fill="#ff4106" stroke="none" /><path d="M 81.63589988554816 89.8137432299009 l -11.278558952214729 -6.25602652827775 a33.897432301086056,33.897432301086056 0 0,0 0.2866215708628478,-0.5064328521661742 l 11.169504016330512 6.44871615054303" fill="#ff6409" stroke="none" /><line stroke="#e1ed5e" stroke-width="0.3" x1="26.387840678322718" x2="22.05771365940052" y1="57.49999999999999" y2="54.99999999999999" /><path d="M 25.521815274538284 56.99999999999999 a86.0,86.0 0 0,1 29.574782752854787,-30.34633250058573" fill="none" id="id11" stroke="none" /><text fill="#e1ed5e" style="font-size:6.75px; font-family:Arial;" text-anchor="middle"><textPath startOffset="21.40746469413373" xlink:href="#id11">November</textPath></text><path d="M 81.81346652052679 89.5 l -9.16427589900459 -5.2909971572183006 a31.5819943144366,31.5819943144366 0 0,0 0.2751036688877281,-0.467186173178036 l 9.072098519987081 5.44753449868991" fill="#ff4106" stroke="none" /><path d="M 81.99639281039701 89.18935116829357 l -48.46436036877097 -29.101455907270704 a77.53042509902892,77.53042509902892 0 0,0 0.694938558715662,-1.1351299090017877 l 47.957653845599914 29.929122932397036" fill="#44ffe9" stroke="none" /><path d="M 82.37810715431573 88.57770195909679 l -8.849334820668227 -5.736031916127015 a31.54574743254924,31.54574743254924 0 0,0 0.2984461462298425,-0.45188550383546267 l 8.749564235517655 5.887097298301538" fill="#ff4006" stroke="none" /><path d="M 82.576782715395 88.27688183743585 l -8.757429144033463 -5.892389159750688 a31.555226914790325,31.555226914790325 0 0,0 0.30625138582647254,-0.44682992435437124 l 8.654988021391677 6.041853819175094" fill="#ff4006" stroke="none" /><path d="M 82.78059297857968 87.97951657250589 l -10.811559449437198 -7.547308163728376 a34.185282638115716,34.185282638115716 0 0,0 0.3400375902660881,-0.47830545478333547 l 10.680406760641137 7.731790845221232" fill="#ff6809" stroke="none" /><path d="M 82.98947788004972 87.6856937992154 l -6.90578013718881 -4.999252260746467 a29.525392804426676,29.525392804426676 0 0,0 0.3007343758029198,-0.40800393848586297 l 6.81894374180207 5.117062508501194" fill="#ff2103" stroke="none" /><path d="M 83.42222388311158 87.10902102172516 l -24.783694632643297 -19.271950849180264 a52.394897820781836,52.394897820781836 0 0,0 0.5582141669340087,-0.7052853645030033 l 24.449214035067726 19.69455615759795" fill="#9fff22" stroke="none" /><path d="M 83.64595745247003 86.82634096563983 l -26.131910441385354 -21.050017270698678 a54.555625018963624,54.555625018963624 0 0,0 0.5937553155480342,-0.7242849417047464 l 25.76670830659869 21.495504494101915" fill="#85ff25" stroke="none" /><path d="M 83.8745106332314 86.54754324733833 l -5.964731544709291 -4.975991197625154 a28.767786737500785,28.767786737500785 0 0,0 0.3196038591298506,-0.376492542422491 l 5.878433122072325 5.077650522497202" fill="#ff1502" stroke="none" /><path d="M 84.34580500576568 86.00192230759919 l -7.79213109791255 -6.967771676418134 a31.453092804608147,31.453092804608147 0 0,0 0.36336155381105245,-0.39939799921365704 l 7.671371843259632 7.100507251189448" fill="#ff3f05" stroke="none" /><path d="M 84.58840730492382 85.73525988315684 l -7.705541409965315 -7.132134092010218 a31.499652619353874,31.499652619353874 0 0,0 0.37071216115272765,-0.39368346851098446 l 7.581973415076316 7.263359020465714" fill="#ff4006" stroke="none" /><path d="M 85.08716467003674 85.21462403516908 l -22.385169076296656 -22.193843994532227 a52.52241275391245,52.52241275391245 0 0,0 0.6402934304414266,-0.6348208699030214 l 22.000883725725252 22.57484487466392" fill="#9dff22" stroke="none" /><path d="M 85.60350026404147 84.71141617570332 l -7.213469143888109 -7.660454255755813 a31.522200173649672,31.522200173649672 0 0,0 0.3971350337442779,-0.367582258351908 l 7.080904338829878 7.783154260240086" fill="#ff4006" stroke="none" /><path d="M 86.40962598614128 83.9905735841838 l -6.76499726618174 -7.969149769218426 a31.453350470336318,31.453350470336318 0 0,0 0.41462355651379446,-0.3458937174416025 l 6.627199375506037 8.08410567057191" fill="#ff3f05" stroke="none" /><path d="M 86.68645165197937 83.75963576809568 l -6.643666605283411 -8.104193013366197 a31.479324900013907,31.479324900013907 0 0,0 0.4208474388293258,-0.33900490649381365 l 6.5035683960988395 8.21704621365341" fill="#ff3f05" stroke="none" /><path d="M 87.25179093698888 83.31218511350988 l -24.636208331907824 -32.2495875393791 a61.582984826565436,61.582984826565436 0 0,0 0.8455842670806969,-0.6345421981313573 l 24.078971075916375 32.66774876477446" fill="#36ff2e" stroke="none" /><path d="M 87.83215693770416 82.88440491214696 l -6.10742255016292 -8.590854670284356 a31.54055948098511,31.54055948098511 0 0,0 0.4439782957002396,-0.30993133149085905 l 5.959049163288915 8.694430817580342" fill="#ff4006" stroke="none" /><path d="M 88.12776184653039 82.6780497279521 l -5.878067073182629 -8.576275527936186 a31.3973157328183,31.3973157328183 0 0,0 0.44719303235603564,-0.3008914297600727 l 5.729977752729605 8.675916631753369" fill="#ff3e05" stroke="none" /><path d="M 88.4268655584334 82.4767994020092 l -5.743813976333846 -8.696866437785602 a31.42242221517674,31.42242221517674 0 0,0 0.4526540090179511,-0.2934048598348494 l 5.593674335058869 8.794185139324359" fill="#ff3e05" stroke="none" /><path d="M 88.72937992617638 82.28071324371311 l -5.660383415799625 -8.899062894332626 a31.546718011360085,31.546718011360085 0 0,0 0.45943418984904855,-0.2867209140715717 l 5.506785097160878 8.994919605245736" fill="#ff4006" stroke="none" /><path d="M 89.03521579738668 82.08984904055464 l -26.702269546655053 -43.61615055099849 a72.14078399701737,72.14078399701737 0 0,0 1.0617311071306532,-0.6375390238194539 l 25.94960568296697 44.06810357535387" fill="#3dffac" stroke="none" /><line stroke="#e1ed5e" stroke-width="0.3" x1="56.869717070023135" x2="54.33264160355391" y1="26.7553504044142" y2="22.446841604673864" /><path d="M 56.362301976729285 25.89364864446614 a86.0,86.0 0 0,1 42.16139366436587,-11.88097634709845" fill="none" id="id12" stroke="none" /><text fill="#e1ed5e" style="font-size:6.75px; font-family:Arial;" text-anchor="middle"><textPath startOffset="22.145653131862474" xlink:href="#id12">December</textPath></text><path d="M 89.34428304082924 81.90426304109057 l -3.703141660268197 -6.28874412323048 a28.29805184987609,28.29805184987609 0 0,0 0.42070785392420307,-0.2428957927133271 l 3.5946413384835942 6.351386813219982" fill="#ff0d01" stroke="none" /><path d="M 89.97174638481275 81.54914285379989 l -5.01296553379554 -9.223291960108567 a31.497568195750162,31.497568195750162 0 0,0 0.47727992740062786,-0.25412467844201103 l 4.85389679060835 9.307987106273153" fill="#ff4006" stroke="none" /><path d="M 90.28995756902619 81.37971332152246 l -4.8433966577049885 -9.287851716936537 a31.47485945966192,31.47485945966192 0 0,0 0.4812247891851518,-0.2457168062203169 l 4.683244646806254 9.369626474829689" fill="#ff3f05" stroke="none" /><path d="M 90.61103034731259 81.2157712731953 l -4.673456558907813 -9.350043742252664 a31.452966764992446,31.452966764992446 0 0,0 0.48503432938781343,-0.23725459588378148 l 4.5122619802579464 9.42889208823366" fill="#ff3f05" stroke="none" /><path d="M 91.26138138417902 80.90454125486306 l -7.044845321128629 -15.394258418822691 a37.92964966749523,37.92964966749523 0 0,0 0.5943875876168816,-0.265862007636139 l 6.779544330656129 15.512924177368676" fill="#ff9f0e" stroke="none" /><path d="M 93.27111125876988 80.10723608172694 l -3.315913680653688 -9.802909597604202 a31.348541931902624,31.348541931902624 0 0,0 0.5112458485510657,-0.16805666505159378 l 3.1471450944548613 9.858387184057825" fill="#ff3d05" stroke="none" /><path d="M 93.61358852112211 79.99465700312896 l -10.54728458915835 -33.03921875212437 a55.681914421718766,55.681914421718766 0 0,0 0.9130756576552335,-0.28287317276035745 l 9.978568298631501 33.21540851269137" fill="#78ff26" stroke="none" /><path d="M 94.30408787586887 79.78721728523814 l -2.8477766050077937 -10.105754527592074 a31.499338367915257,31.499338367915257 0 0,0 0.521716940124421,-0.1421962720030908 l 2.673878263948695 10.153151293739304" fill="#ff4006" stroke="none" /><path d="M 94.6519064749342 79.69241777938228 l -2.677398099912207 -10.166516684209217 a31.513159471620217,31.513159471620217 0 0,0 0.5243110053870783,-0.13327780726715882 l 2.502481801299751 10.210979723311638" fill="#ff4006" stroke="none" /><path d="M 95.00130118170881 79.60360301121753 l -2.482857592421158 -10.130906254309279 a31.430716339631054,31.430716339631054 0 0,0 0.5251441784999188,-0.12393259623251592 l 2.308581260181333 10.172034994188028" fill="#ff3f05" stroke="none" /><path d="M 95.35216902796891 79.52079915486377 l -2.3176330273849186 -10.21191875065016 a31.471614365488527,31.471614365488527 0 0,0 0.5278802566283198,-0.115049045000791 l 2.1419903541374805 10.250199253784665" fill="#ff3f05" stroke="none" /><path d="M 95.70440661134978 79.44403061299748 l -2.1479740004138677 -10.278833167321512 a31.500866801749403,31.500866801749403 0 0,0 0.5302698630113807,-0.10606882367592337 l 1.97120765187151 10.314191387660301" fill="#ff4006" stroke="none" /><path d="M 96.05791012581881 79.37332000966035 l -11.826269622543562 -61.88003997101895 a84.0,84.0 0 0,0 1.4186610657958458,-0.25852730427455484 l 10.762273823196677 62.07393544922487" fill="#4dd2ff" stroke="none" /><path d="M 97.12497278360702 79.19773525538626 l -1.432290964203085 -10.363343922027772 a31.461852352827762,31.461852352827762 0 0,0 0.5356338085968204,-0.0693485202852978 l 1.2541793337154705 10.386404038513465" fill="#ff3f05" stroke="none" /><path d="M 97.48249496171623 79.15144685158666 l -1.017388423033591 -8.425435614880112 a29.48663917601149,29.48663917601149 0 0,0 0.5030478190103004,-0.056367557377444796 l 0.8726047024224914 8.441658932764527" fill="#ff2003" stroke="none" /><path d="M 97.84075906011542 79.11130261209362 l -1.0857506081303974 -10.503652220110068 a31.559619517012848,31.559619517012848 0 0,0 0.5393695820980331,-0.05107886020512424 l 0.9052814626473487 10.520742835820375" fill="#ff4106" stroke="none" /><path d="M 98.1996594967304 79.07731436759882 l -0.8990249945638604 -10.448033193037666 a31.48664119457071,31.48664119457071 0 0,0 0.5389178617007908,-0.04171565085040422 l 0.7195381380878525 10.461926610883124" fill="#ff3f05" stroke="none" /><path d="M 98.5590905019552 79.04949213459386 l -1.0631030691499561 -15.457285306388426 a36.49380060471696,36.49380060471696 0 0,0 0.6253571552265893,-0.03761993355962407 l 0.797601561790883 15.473257217772744" fill="#ff8b0c" stroke="none" /><path d="M 99.27912038922189 79.0123766808444 l -0.3369086933302839 -9.808729006682002 a30.814513344744427,30.814513344744427 0 0,0 0.52881620680168,-0.013620429646986898 l 0.16847917245786 9.813067153679034" fill="#ff3505" stroke="none" /></svg>