<?xml version="1.0" encoding="utf-8" ?>
<svg baseProfile="full" height="200mm" version="1.1" viewBox="0,0,200,200" width="200mm" xmlns="http://www.w3.org/2000/svg" xmlns:ev="http://www.w3.org/2001/xml-events" xmlns:xlink="http://www.w3.org/1999/xlink"><defs /><rect fill="#1a1a1a" height="200" width="200" x="0" y="0" /><text alignment-baseline="middle" fill="#e1ed5e" style="dominant-baseline: central; font-size:9.0px; font-family:Arial;" text-anchor="middle" x="100.0" y="100.0">2025</text><line stroke="#e1ed5e" stroke-width="0.3" x1="100.0" x2="100.0" y1="15.0" y2="10.0" /><path d="M 100.0 14.0 a86.0,86.0 0 0,1 42.46469731375804,11.215312516191453" fill="none" id="id13" stroke="none" /><text fill="#e1ed5e" style="font-size:6.75px; font-family:Arial;" text-anchor="middle"><textPath startOffset="22.20632615414155" xlink:href="#id13">January</textPath></text><path d="M 100.36148047927253 79.00311137660856 l 0.24748247460860998 -14.37522149482553 a35.37735165461749,35.37735165461749 0 0,0 0.6087825050154064,0.01572305602120867 l -0.49489161481888416 14.368831646661961" fill="#ff730a" stroke="none" /><path d="M 101.08401301168833 79.027996857942 l 1.4351885791917043 -27.76606836607608 a48.803135052857854,48.803135052857854 0 0,0 0.8385725363179498,0.05058498543296172 l -1.9129231643492661 27.737250111262817" fill="#d0ff1d" stroke="none" /><path d="M 105.01212808612495 79.60689891045804 l 3.3791400399214813 -13.748879367349765 a35.1580461670153,35.1580461670153 0 0,0 0.5864548125479516,0.14950038967957555 l -3.6153037411544577 13.688675981501323" fill="#ff700a" stroke="none" /><path d="M 105.36241919743992 79.69619591428918 l 5.395410878276901 -20.428720956158408 a42.1292001374878,42.1292001374878 0 0,0 0.6995495720599394,0.19121332368215943 l -5.746258339560551 20.332821091649954" fill="#ffd513" stroke="none" /><path d="M 105.71112130821622 79.79150937346287 l 3.8913073603210577 -13.769178427867127 a35.3084781703342,35.3084781703342 0 0,0 0.5834470153526093,0.17032418295201585 l -4.127744593397094 13.700155915996406" fill="#ff720a" stroke="none" /><path d="M 106.0581310904928 79.89281104454417 l 7.567838123662032 -25.117969364442537 a47.23327198157001,47.23327198157001 0 0,0 0.7764579229890937,0.24124925627621047 l -7.999081419361843 24.983979973283805" fill="#e4ff1a" stroke="none" /><path d="M 107.76421540070413 80.48803036053334 l 6.697916731881013 -16.832292920194597 a39.11596460303576,39.11596460303576 0 0,0 0.6234640147259876,0.25432662585585636 l -6.986664616195387 16.71450540815516" fill="#ffaa0f" stroke="none" /><path d="M 108.43124777332544 80.76684994638697 l 5.8610991774281604 -13.370191813746453 a35.59844213277642,35.59844213277642 0 0,0 0.5590953700054873,0.25084979528260204 l -6.090376665900428 13.26732168794732" fill="#ff760a" stroke="none" /><path d="M 109.08828744355905 81.06846463323043 l 20.600326443723734 -42.911913939600076 a68.6004811692868,68.6004811692868 0 0,0 1.0601346303020656,0.5202034589750738 l -21.33593234103623 42.550955320490175" fill="#38ff7f" stroke="none" /><path d="M 109.73455568895987 81.39251694778311 l 24.471428667186842 -46.776833862549715 a73.79131564204279,73.79131564204279 0 0,0 1.120415548364679,0.5984871834887504 l -25.272989262079832 46.34866795255921" fill="#3fffbe" stroke="none" /><line stroke="#e1ed5e" stroke-width="0.3" x1="143.23703022742887" x2="145.7803849466894" y1="26.81831364943548" y2="22.513508569990506" /><path d="M 143.74570117128098 25.957352633546492 a86.0,86.0 0 0,1 28.547481713284135,27.462654790039103" fill="none" id="id14" stroke="none" /><text fill="#e1ed5e" style="font-size:6.75px; font-family:Arial;" text-anchor="middle"><textPath startOffset="19.985693538727396" xlink:href="#id14">February</textPath></text><path d="M 110.99172775467656 82.1063720568725 l 7.028499221607815 -11.441818145150396 a34.42814223095788,34.42814223095788 0 0,0 0.5022915904271027,0.31453494784513264 l -7.22440996440718 11.31913885598232" fill="#ff6509" stroke="none" /><path d="M 112.19680574252982 82.90503203632743 l 10.096737039980582 -14.151524577802574 a38.38418093355756,38.38418093355756 0 0,0 0.5345539758067862,0.38837619693797665 l -10.338836332141158 13.975629146047922" fill="#ffa00e" stroke="none" /><path d="M 112.48926042617603 83.11751280151076 l 8.356444826577366 -11.295910886275697 a35.05089936232957,35.05089936232957 0 0,0 0.4819562859571669,0.362999482581274 l -8.549647266292915 11.150394814188576" fill="#ff6e0a" stroke="none" /><path d="M 113.34407831869373 83.78471172551755 l 16.587220376602733 -20.15624861120511 a47.10383569322127,47.10383569322127 0 0,0 0.6216415734615421,0.5206069403194455 l -16.93171948702339 19.867740513491846" fill="#e6ff1a" stroke="none" /><path d="M 113.6212207817346 84.01681056812373 l 8.592698975887076 -10.082703867986407 a34.24746741757529,34.24746741757529 0 0,0 0.44539027297060474,0.38623805577147796 l -8.764983047504446 9.933300818795257" fill="#ff6209" stroke="none" /><path d="M 113.89432698308785 84.25364557470407 l 12.155830545832007 -13.776127216632615 a39.37242219599333,39.37242219599333 0 0,0 0.5043213791644746,0.4527847136898145 l -12.391162912592472 13.564843494173504" fill="#ffae10" stroke="none" /><path d="M 114.16331599549186 84.49514656593476 l 9.586347939524076 -10.494358794055303 a35.21371286173966,35.21371286173966 0 0,0 0.44401493086193644,0.4126634877408846 l -9.76557075418086 10.32779072023978" fill="#ff710a" stroke="none" /><path d="M 114.68862486808459 84.99185889309783 l 22.176438305421396 -22.658834188041723 a52.7051601900279,52.7051601900279 0 0,0 0.642913104149123,0.6401522309627949 l -22.56318720973784 22.27374610642881" fill="#9fff22" stroke="none" /><path d="M 115.4437574822437 85.77008943001954 l 10.471543333332313 -9.648502013471509 a35.23891888051267,35.23891888051267 0 0,0 0.4071879887700976,0.4496271473175159 l -10.636074962718446 9.466822078884444" fill="#ff710a" stroke="none" /><path d="M 115.68641384162765 86.03803664274999 l 10.598165687218971 -9.433080273984526 a35.188168288724995,35.188168288724995 0 0,0 0.3988128742146902,0.4559120570035624 l -10.758970425011508 9.249252660778016" fill="#ff700a" stroke="none" /><path d="M 116.15771136456269 86.58626213691792 l 10.946222136470954 -9.087286622269817 a35.22668468815735,35.22668468815735 0 0,0 0.38330240811394445,0.4698834301607997 l -11.101023036661308 8.897519022500918" fill="#ff710a" stroke="none" /><path d="M 116.38621287248628 86.86637796730983 l 24.65390643059212 -19.760214956830172 a52.595588258940936,52.595588258940936 0 0,0 0.5601327948986741,0.7113117671454047 l -24.99039330608476 19.332910795731728" fill="#a0ff22" stroke="none" /><path d="M 116.82858285166822 87.43820079747576 l 11.431136929901488 -8.532842488026102 a35.264651851188695,35.264651851188695 0 0,0 0.3589225979661705,0.48957002026052804 l -11.576322140381285 8.334810024094079" fill="#ff710a" stroke="none" /><path d="M 117.04232023915458 87.72973835380427 l 10.176233035397026 -7.326763032542119 a33.53942484030793,33.53942484030793 0 0,0 0.3332978430099255,0.4714261622367848 l -10.300843498210835 7.150510369973541" fill="#ff5708" stroke="none" /><path d="M 117.2510076193507 88.02491185347247 l 11.74869126232095 -8.15555917526901 a35.301919166274544,35.301919166274544 0 0,0 0.34221938367588206,0.5021647178903741 l -11.887335111665566 7.952116434108229" fill="#ff720a" stroke="none" /><path d="M 117.45458315368197 88.32363383020206 l 11.135024214482105 -7.448852767958155 a34.396797073025354,34.396797073025354 0 0,0 0.3249733462951862,0.4949567015473275 l -11.261594196135215 7.256078002433154" fill="#ff6409" stroke="none" /><line stroke="#e1ed5e" stroke-width="0.3" x1="172.23445277983987" x2="176.4835382374775" y1="55.19839476539836" y2="52.563006222186495" /><path d="M 173.08426987136738 54.67131705675599 a86.0,86.0 0 0,1 12.851231095245387,41.99856678651699" fill="none" id="id15" stroke="none" /><text fill="#e1ed5e" style="font-size:6.75px; font-family:Arial;" text-anchor="middle"><textPath startOffset="22.20632615414155" xlink:href="#id15">March</textPath></text><path d="M 119.04729006885535 91.15688171328212 l 18.75611477408726 -8.707933829270337 a41.6789736929492,41.6789736929492 0 0,0 0.29651152862248686,0.6533238492271205 l -18.903228619673094 8.383787971201153" fill="#ffcf13" stroke="none" /><path d="M 119.34039704204932 91.81776055985345 l 12.960875970394882 -5.483289216516291 a35.073051074728724,35.073051074728724 0 0,0 0.23044382966882432,0.5580380121836654 l -13.053341486949904 5.259376633879323" fill="#ff6f0a" stroke="none" /><path d="M 119.47837535516314 92.15188598940014 l 13.211293194189302 -5.323017619535506 a35.24334175819418,35.24334175819418 0 0,0 0.22187605257889917,0.5646503526353518 l -13.300962796649902 5.094818262004369" fill="#ff710a" stroke="none" /><path d="M 119.61058180528143 92.48833698450437 l 13.325646812561388 -5.104273259884457 a35.26977464729906,35.26977464729906 0 0,0 0.2122827466666814,0.568812220725219 l -13.411534147729695 4.874137902129905" fill="#ff720a" stroke="none" /><path d="M 119.7369772167798 92.82701384747503 l 13.454974765044707 -4.889925474007568 a35.315995147712854,35.315995147712854 0 0,0 0.20272544824726188,0.573132141497462 l -13.537153294101778 4.657595706083492" fill="#ff720a" stroke="none" /><path d="M 119.85752413597 93.16781622104841 l 13.443722714813179 -4.625449962036915 a35.2171891660796,35.2171891660796 0 0,0 0.19229039121591368,0.5749237945526176 l -13.521350399800863 4.393353064561984" fill="#ff710a" stroke="none" /><path d="M 119.97218684219823 93.5106431181261 l 30.014401925986313 -9.752270356403832 a52.5590098082789,52.5590098082789 0 0,0 0.27216686167730453,0.8628433278188741 l -30.177824271431824 9.23417686215854" fill="#a1ff22" stroke="none" /><path d="M 120.28053869075195 94.5502522615342 l 13.668693112276939 -3.6730251849958298 a35.15359620051458,35.15359620051458 0 0,0 0.15200359442651973,0.5857318554939239 l -13.729893038573762 3.437196903953055" fill="#ff700a" stroke="none" /><path d="M 120.37134235888165 94.90015583598534 l 12.891322659674533 -3.2272658067477575 a34.289147621395486,34.289147621395486 0 0,0 0.13840928691947996,0.5737958508556724 l -12.944964746854833 3.004884724232679" fill="#ff6309" stroke="none" /><path d="M 120.45610955862082 95.25157060432595 l 13.770593622833779 -3.1965360454861655 a35.13672845517387,35.13672845517387 0 0,0 0.13168846437178136,0.5903335642657294 l -13.823576474207599 2.9590243116704724" fill="#ff700a" stroke="none" /><path d="M 120.53481517161879 95.60439243477599 l 18.045926021468347 -3.862845040410757 a39.454728873070295,39.454728873070295 0 0,0 0.13643953286882216,0.6653276177822147 l -18.109744850252167 3.5516417664651305" fill="#ffaf10" stroke="none" /><path d="M 120.73433829027371 96.67025291283417 l 13.893865030767898 -2.2312289868144077 a35.071882186999574,35.071882186999574 0 0,0 0.09059251974456785,0.596891515414951 l -13.930213443951766 1.9917383590073747" fill="#ff6f0a" stroke="none" /><path d="M 120.78858239683441 97.02765380044208 l 13.919046711425647 -1.9901417424439218 a35.06060189002828,35.06060189002828 0 0,0 0.08027876258633095,0.5981700273033379 l -13.951241473069814 1.7502533730759198" fill="#ff6e0a" stroke="none" /><path d="M 120.83666639777658 97.38593545837742 l 14.182062025821958 -1.7792109717103868 a35.29323178942103,35.29323178942103 0 0,0 0.0704346136027214,0.6034407556544754 l -14.210586992428269 1.5348264777310587" fill="#ff720a" stroke="none" /><path d="M 120.87857604477298 97.74499172005257 l 14.113611011585485 -1.5243525048275643 a35.19569182341323,35.19569182341323 0 0,0 0.059871013120704884,0.6028929315555991 l -14.137759150388419 1.2811840425675303" fill="#ff700a" stroke="none" /><path d="M 120.91429891909075 98.10471618934814 l 14.032394379410109 -1.2716357356689447 a35.08989529640056,35.08989529640056 0 0,0 0.049335584349814755,0.6020190915204618 l -14.052204447579419 1.0299027269407142" fill="#ff6f0a" stroke="none" /><path d="M 120.94382443527127 98.46500227214037 l 41.838989737579475 -3.066429170164842 a62.9512103534203,62.9512103534203 0 0,0 0.06990404861897527,1.0813846918712788 l -41.885574377202865 2.345785414040528" fill="#30ff36" stroke="none" /><path d="M 120.98425023603335 99.18683210126433 l 14.04341529565978 -0.5442012165597707 a35.05395560440107,35.05395560440107 0 0,0 0.018175151388522475,0.6031447909861365 l -14.050702141503947 0.3023862781486352" fill="#ff6e0a" stroke="none" /><line stroke="#e1ed5e" stroke-width="0.3" x1="184.98032266829074" x2="189.97916517819016" y1="98.17113171792111" y2="98.06355123074" /><path d="M 185.9800911702706 98.14961562048488 a86.0,86.0 0 0,1 -9.607161424134198,41.387399972396054" fill="none" id="id16" stroke="none" /><text fill="#e1ed5e" style="font-size:6.75px; font-family:Arial;" text-anchor="middle"><textPath startOffset="21.466115282336823" xlink:href="#id16">April</textPath></text><path d="M 120.99513854157772 99.54816195383933 l 14.122241407307895 -0.30392588037705637 a35.12551143523818,35.12551143523818 0 0,0 0.007806214850231314,0.6045999429010095 l -14.125380629275842 0.060789679415584136" fill="#ff6f0a" stroke="none" /><path d="M 120.99980553446 99.90962569577887 l 14.082558174134956 -0.060605389633374133 a35.08268858354639,35.08268858354639 0 0,0 -0.0025989635105211815,0.60390759057542 l -14.081514913334933 -0.18181167914573051" fill="#ff6f0a" stroke="none" /><path d="M 120.99824983174949 100.27111621757518 l 35.22825465917337 0.4548451052586953 a56.231190874016,56.231190874016 0 0,0 -0.020826794179308442,0.9677392881961588 l -35.21520580230906 -1.061174209244969" fill="#75ff27" stroke="none" /><path d="M 120.92983693683757 101.71520430193887 l 13.843222456757342 1.1344548350845682 a34.88962907208531,34.88962907208531 0 0,0 -0.054204201629517744,0.5981388482184562 l -13.821643658850748 -1.372575071851595" fill="#ff6c09" stroke="none" /><path d="M 120.89721153311464 102.0752229133903 l 14.063914585585456 1.3966340798016013 a35.1330916725077,35.1330916725077 0 0,0 -0.06494217904187186,0.6012839224122892 l -14.037790105042532 -1.6385143240986817" fill="#ff6f0a" stroke="none" /><path d="M 120.8583938346157 102.4346265915055 l 13.812359091922724 1.6122016394575145 a34.906130224131005,34.906130224131005 0 0,0 -0.07479634181518449,0.596200437044188 l -13.78256124086069 -1.8497198307890974" fill="#ff6c0a" stroke="none" /><path d="M 120.81339534386255 102.79330883721812 l 14.048648483249716 1.8854306714932036 a35.17460309930835,35.17460309930835 0 0,0 -0.08570199750907177,0.5993995709704486 l -14.014112434724044 -2.1269757144440615" fill="#ff700a" stroke="none" /><path d="M 120.64145759157962 103.86396538481128 l 61.5831218011734 11.528015881272898 a83.65282149222841,83.65282149222841 0 0,0 -0.27713011418995886,1.4130804817335056 l -61.37556175400778 -12.586360090074349" fill="#4dd5ff" stroke="none" /><path d="M 120.5718875245553 104.21870165774334 l 13.926365346397663 2.8558964510699276 a35.21618079163949,35.21618079163949 0 0,0 -0.12688886533586688,0.592782535370777 l -13.875142442337355 -3.0951928058568736" fill="#ff710a" stroke="none" /><path d="M 120.41448212921028 104.9243191809786 l 14.07043372252213 3.394027153172961 a35.47399479951417,35.47399479951417 0 0,0 -0.1482959704834855,0.5923686857881512 l -14.009926437743584 -3.635723678358508" fill="#ff750a" stroke="none" /><path d="M 120.32669344350535 105.2749913415812 l 13.926980498545461 3.6141983322757585 a35.388301337958225,35.388301337958225 0 0,0 -0.1580878392147962,0.5883036598379568 l -13.862704582988888 -3.8533929252892634" fill="#ff730a" stroke="none" /><path d="M 119.9155931802556 106.66101706037122 l 12.46021158277925 4.167472250387799 a34.13867183719034,34.13867183719034 0 0,0 -0.19119146797493736,0.5556919006775334 l -12.386629283861081 -4.3813368541546325" fill="#ff6008" stroke="none" /><path d="M 119.79798401119884 107.00284435728193 l 13.519264293104126 4.781966871779205 a35.340073716323566,35.340073716323566 0 0,0 -0.2077924627739436,0.5717556142422217 l -13.434947569324954 -5.013970283027557" fill="#ff730a" stroke="none" /><path d="M 119.54520255179757 107.68017299344265 l 13.239785304357948 5.2024961759302375 a35.225255054517,35.225255054517 0 0,0 -0.22661142238008664,0.5624309660798894 l -13.14827126772047 -5.42962650985294" fill="#ff710a" stroke="none" /><path d="M 119.26925614724726 108.34839909993367 l 24.088477279920014 10.436325123592553 a47.25207838915905,47.25207838915905 0 0,0 -0.3297720644241911,0.7435489479940729 l -23.90526413076455 -10.849422408079313" fill="#e4ff1a" stroke="none" /><path d="M 119.12269723197855 108.67885076344098 l 13.336342641328272 6.052709307170622 a35.64559063349856,35.64559063349856 0 0,0 -0.2583887472454684,0.5565463742246597 l -13.230179277242973 -6.281375748674113" fill="#ff770b" stroke="none" /><path d="M 118.97047184881838 109.00673069616215 l 12.896057932393948 6.1227428481918755 a35.27572380584416,35.27572380584416 0 0,0 -0.2651503868243475,0.5462883318085318 l -12.788754288954886 -6.343820135965682" fill="#ff720a" stroke="none" /><path d="M 118.81262510543309 109.33194174019688 l 12.76972402882568 6.33438023707697 a35.25448086603785,35.25448086603785 0 0,0 -0.27434924567249674,0.5413170892315169 l -12.658796113366915 -6.553251538011181" fill="#ff710a" stroke="none" /><path d="M 118.64920377521936 109.65438752849418 l 6.212803468576393 3.2162666592613722 a27.99594869639788,27.99594869639788 0 0,0 -0.22523072914861886,0.42605165913274634 l -6.156520231202881 -3.3227333334802527" fill="#ff0000" stroke="none" /><line stroke="#e1ed5e" stroke-width="0.3" x1="174.80103733775053" x2="179.2010983576182" y1="140.37084112569926" y2="142.7455964860345" /><path d="M 175.68104954172406 140.8457921977663 a86.0,86.0 0 0,1 -30.038265399797805,32.042727171017184" fill="none" id="id17" stroke="none" /><text fill="#e1ed5e" style="font-size:6.75px; font-family:Arial;" text-anchor="middle"><textPath startOffset="22.206326154141568" xlink:href="#id17">May</textPath></text><path d="M 118.30583269289576 110.29060199501025 l 11.836131577935994 6.653667236693424 a34.57811836842134,34.57811836842134 0 0,0 -0.29613359835082464,0.5163338898999519 l -11.719845983432789 -6.856420972451692" fill="#ff6709" stroke="none" /><path d="M 117.75023020441432 111.22182372390056 l 11.326189380616826 7.160498721937003 a34.3998249179778,34.3998249179778 0 0,0 -0.32072944855338154,0.4977792266217729 l -11.201255068686395 -7.354399548480229" fill="#ff6409" stroke="none" /><path d="M 117.55443506779139 111.5257021239791 l 11.918476370961985 7.825304995170908 a35.257821617365884,35.257821617365884 0 0,0 -0.33746250738444244,0.5044606610254744 l -11.782010758166821 -8.029302570402189" fill="#ff710a" stroke="none" /><path d="M 117.14729908036423 112.12312394758627 l 11.59085939586203 8.194726438054026 a35.195124618304156,35.195124618304156 0 0,0 -0.35399626329736844,0.49166984833190586 l -11.448083340189058 -8.393029891837063" fill="#ff700a" stroke="none" /><path d="M 116.93607887273984 112.41649034213515 l 11.532616975174678 8.455004748607125 a35.29994264306875,35.29994264306875 0 0,0 -0.3634864229939567,0.48694946370271086 l -11.385369285485629 -8.652267091819152" fill="#ff720a" stroke="none" /><path d="M 116.71984013943494 112.70617746262583 l 27.257945310817995 20.71456948735564 a55.235784956884366,55.235784956884366 0 0,0 -0.5817990037176948,0.7520536396000667 l -26.89733948988223 -21.180701121068957" fill="#80ff25" stroke="none" /><path d="M 116.498646956653 112.99209946851258 l 49.495940869959 38.97629840553772 a84.0,84.0 0 0,0 -0.9043283517805842,1.1282886656869988 l -48.81769460612357 -39.822514904802965" fill="#4dd2ff" stroke="none" /><path d="M 116.27256486870786 113.27417163493432 l 11.365502333547555 9.271287588035694 a35.66735889088215,35.66735889088215 0 0,0 -0.39217789719701324,0.4724035411419973 l -11.204228436456999 -9.465552386291462" fill="#ff770b" stroke="none" /><path d="M 116.0416608686014 113.55231037782055 l 10.96084719480642 9.259939130032942 a35.34875060483703,35.34875060483703 0 0,0 -0.39667608844496716,0.46142390746731515 l -10.799828596790674 -9.447240136661787" fill="#ff730a" stroke="none" /><path d="M 115.56566222782051 114.09645910891815 l 9.768186914274509 8.846192689395147 a34.178490076261085,34.178490076261085 0 0,0 -0.3986735196887011,0.4326813666456686 l -9.614466986590084 -9.013025310842151" fill="#ff6109" stroke="none" /><path d="M 115.32070863581623 114.36230785411682 l 8.568990793944346 8.032949826747021 a32.745462364068004,32.745462364068004 0 0,0 -0.3890370634238882,0.4079038056502639 l -8.429447179141492 -8.179260748979791" fill="#ff4b07" stroke="none" /><path d="M 115.07121518719521 114.62390073753431 l 12.462523461902569 12.092635118162166 a38.365088975858455,38.365088975858455 0 0,0 -0.4639606674284655,0.46998970658653305 l -12.252522169418567 -12.305365318729363" fill="#ff9f0e" stroke="none" /><path d="M 114.81725581225074 114.88116024355365 l 24.109640396469192 24.213621381745853 a55.16978519782644,55.16978519782644 0 0,0 -0.6787198396797935,0.664270214716868 l -23.689270604413604 -24.625041699385292" fill="#81ff25" stroke="none" /><path d="M 114.55890576462653 115.13401014063108 l 9.915203994797873 10.306873348152761 a35.30184982697404,35.30184982697404 0 0,0 -0.4415490918696737,0.41751222646749225 l -9.736319068537393 -10.476020211366176" fill="#ff720a" stroke="none" /><path d="M 114.0293411484842 115.62618273729858 l 9.481208182431551 10.560374151643842 a35.192068588522055,35.192068588522055 0 0,0 -0.4542418718073701,0.40081563807318227 l -9.298023957717595 -10.722012931489314" fill="#ff700a" stroke="none" /><path d="M 113.75828350139079 115.86535959552629 l 9.368186967992719 10.802921381166696 a35.29916212352798,35.29916212352798 0 0,0 -0.46247705467078165,0.39413297921587054 l -9.18084443674489 -10.962578750605514" fill="#ff720a" stroke="none" /><path d="M 113.20401910651253 116.32954008644616 l 8.401517409603503 10.390239079510948 a34.3619819979398,34.3619819979398 0 0,0 -0.46313816856657747,0.3679449713763354 l -8.221421748319575 -10.53331796489241" fill="#ff6409" stroke="none" /><path d="M 112.63410532772338 116.77436683061366 l 8.509552566071456 11.298176847904603 a35.14430220835446,35.14430220835446 0 0,0 -0.48635535361427845,0.35979406348948445 l -8.313812242038614 -11.442980860133856" fill="#ff700a" stroke="none" /><path d="M 112.34349029814194 116.9893568818739 l 8.357909711912061 11.503675820406192 a35.21932530514272,35.21932530514272 0 0,0 -0.4935278556620831,0.35211902103760984 l -8.158654528401094 -11.645839103288022" fill="#ff710a" stroke="none" /><path d="M 112.04921762599082 117.19931262002967 l 8.217516456902144 11.729859887137392 a35.321912920114144,35.321912920114144 0 0,0 -0.5009708850098108,0.34457234280616506 l -8.01438868726945 -11.869573019308651" fill="#ff720a" stroke="none" /><path d="M 111.7513745106137 117.40417183066458 l 7.997852880063901 11.845082945428 a35.292363019291656,35.292363019291656 0 0,0 -0.5064039009031718,0.3356168921579103 l -7.7927742804207645 -11.98099785867723" fill="#ff720a" stroke="none" /><path d="M 111.1453310114006 117.79835938074945 l 16.88541375667482 26.964893373425443 a52.815447071733985,52.815447071733985 0 0,0 -0.7746788696651573,0.4758710340755921 l -16.418755687077354 -27.251552874329413" fill="#9dff22" stroke="none" /><line stroke="#e1ed5e" stroke-width="0.3" x1="143.8653032363475" x2="146.44561519142675" y1="172.8068346515853" y2="177.08958963109032" /><path d="M 144.38136562736335 173.6633856474863 a86.0,86.0 0 0,1 -40.68145358897372,12.25698825130547" fill="none" id="id18" stroke="none" /><text fill="#e1ed5e" style="font-size:6.75px; font-family:Arial;" text-anchor="middle"><textPath startOffset="21.466115282336833" xlink:href="#id18">June</textPath></text><path d="M 110.21172684928248 118.3499491758327 l 6.862134165590729 12.330902993667769 a35.111699187050874,35.111699187050874 0 0,0 -0.5306501123095266,0.2893527512818105 l -6.648861241412553 -12.44719639670935" fill="#ff6f0a" stroke="none" /><path d="M 109.89434966115114 118.52300852407294 l 6.734400665685234 12.607332993778309 a35.29325006924572,35.29325006924572 0 0,0 -0.5383213845993712,0.28162430578252 l -6.516388378559367 -12.721386718505546" fill="#ff720a" stroke="none" /><path d="M 109.57404056367764 118.69057910512821 l 5.9571350113920305 11.62960428565201 a34.0665662430804,34.0665662430804 0 0,0 -0.5242132266722769,0.2628513943415525 l -5.756067877036993 -11.730423520902862" fill="#ff5f08" stroke="none" /><path d="M 109.2508944713604 118.85261126421891 l 6.35731100975518 12.955710771936685 a35.431418671801836,35.431418671801836 0 0,0 -0.5498404999962018,0.263956853750335 l -6.1333578417587455 -13.06322190218658" fill="#ff740a" stroke="none" /><path d="M 108.59647513512805 119.15986991738527 l 13.177650366682569 29.37041786007115 a53.19117758737191,53.19117758737191 0 0,0 -0.8385951995136524,0.3676154914255819 l -12.670134492511162 -29.592897904791187" fill="#99ff23" stroke="none" /><path d="M 108.2653958097858 119.30500536409082 l 5.62833352423521 13.145772008596492 a35.299981117540995,35.299981117540995 0 0,0 -0.5606452943762205,0.23434977851893984 l -5.401216770361529 -13.240706830135405" fill="#ff720a" stroke="none" /><path d="M 107.59598834532513 119.57807347666477 l 5.151228335298534 13.276893309824528 a35.24117443621999,35.24117443621999 0 0,0 -0.5674328824889388,0.21455456285562818 l -4.921925232049321 -13.363596122786788" fill="#ff710a" stroke="none" /><path d="M 107.2578585660854 119.70592522655815 l 4.9688116850680855 13.490898264170985 a35.376836423075865,35.376836423075865 0 0,0 -0.5732402591225836,0.2055435620098375 l -4.735851865315767 -13.574429367220782" fill="#ff730a" stroke="none" /><path d="M 106.91757812671514 119.82793768551818 l 4.723791032643111 13.539859256946876 a35.34022281619116,35.34022281619116 0 0,0 -0.5760965673678392,0.1954432342965354 l -4.4900247323380444 -13.619165478141534" fill="#ff730a" stroke="none" /><path d="M 106.57524785965236 119.94407469862006 l 8.16851628094546 24.77678444393785 a47.088574234967915,47.088574234967915 0 0,0 -0.771980523771436,0.24716378537017136 l -7.740814412083082 -24.91372107596773" fill="#e6ff1a" stroke="none" /><path d="M 106.2309692047433 120.05430185196036 l 6.838089152814216 22.008310337460824 a44.04615341378731,44.04615341378731 0 0,0 -0.7259750464836183,0.21873032624139976 l -6.458239131890351 -22.12275603280795" fill="#ffef16" stroke="none" /><path d="M 105.88484417918355 120.15858648285463 l 3.996470643628747 13.689946010933623 a35.261360362450134,35.261360362450134 0 0,0 -0.5841108685870516,0.16507556598846612 l -3.76022860693709 -13.756710370260608" fill="#ff710a" stroke="none" /><path d="M 105.18746579009965 120.34920634021253 l 3.5105356158007726 13.771004282463446 a35.21141862227105,35.21141862227105 0 0,0 -0.5886120403276179,0.1446665186527371 l -3.2729702907299436 -13.829392059430214" fill="#ff710a" stroke="none" /><path d="M 104.83641907484287 120.43548508189849 l 3.0383297061524863 12.837957262002872 a34.19259618362894,34.19259618362894 0 0,0 -0.573914342603606,0.13062103587190074 l -2.8168952141560184 -12.888355031452457" fill="#ff6109" stroke="none" /><path d="M 104.48393922423573 120.51570834832081 l 5.5792797853722655 25.52730337014975 a47.1298982063674,47.1298982063674 0 0,0 -0.7940457336846204,0.16640000385566936 l -5.139042590258267 -25.619559354731958" fill="#e6ff1a" stroke="none" /><path d="M 104.13013068566511 120.58985236759428 l 3.102804927630862 15.46834718986026 a36.77647499300741,36.77647499300741 0 0,0 -0.6217542687814992,0.11916068539960596 l -2.8360830442776583 -15.519465073608336" fill="#ff880c" stroke="none" /><path d="M 103.7750983002368 120.6578951692458 l 7.047523552907422 38.56508921890051 a60.203745926767525,60.203745926767525 0 0,0 -1.0210298110977922,0.17751912029264902 l -6.3826447703375795 -38.68068691771416" fill="#48ff2c" stroke="none" /><path d="M 103.06178313531738 120.77559828337769 l 2.078701757047182 14.10494171099647 a35.2572922276763,35.2572922276763 0 0,0 -0.6011727761381745,0.08331706887393918 l -1.835600389722177 -14.138633345363013" fill="#ff710a" stroke="none" /><path d="M 102.70371172650421 120.8252237178851 l 1.8311804219540297 14.104588733026874 a35.22296189496324,35.22296189496324 0 0,0 -0.6019311953813569,0.072885485041559 l -1.5881218035212925 -14.134019746793783" fill="#ff710a" stroke="none" /><path d="M 102.34483914955558 120.86867818915974 l 2.0578553922293845 18.314570510476734 a39.42981990683988,39.42981990683988 0 0,0 -0.675127521914816,0.0699797280763634 l -1.742295273708966 -18.347279607008854" fill="#ffaf10" stroke="none" /><path d="M 101.98527174616119 120.90594882070398 l 3.029054843521437 31.8975302278961 a53.0410300690319,53.0410300690319 0 0,0 -0.9096680177239802,0.07848998425262207 l -2.479542508055915 -31.94494446442739" fill="#9bff22" stroke="none" /><path d="M 101.62511606390274 120.93702456842531 l 1.2158668780875856 15.66450253240375 a36.71161900801168,36.71161900801168 0 0,0 -0.630456044113575,0.04347994001031732 l -0.9460480731950801 -15.683110816930354" fill="#ff870c" stroke="none" /><path d="M 101.26447882468166 120.96189622390904 l 2.3566283790427205 39.06700417244942 a60.138018758326155,60.138018758326155 0 0,0 -1.033835348272844,0.05343747861755683 l -1.6838049623563969 -39.10178145782918" fill="#48ff2c" stroke="none" /><line stroke="#e1ed5e" stroke-width="0.3" x1="102.19456741930631" x2="102.32365962044197" y1="184.97166512339345" y2="189.96999836594603" /><path d="M 102.22038585953345 185.97133177190398 a86.0,86.0 0 0,1 -42.740103519485714,-10.115201625700543" fill="none" id="id19" stroke="none" /><text fill="#e1ed5e" style="font-size:6.75px; font-family:Arial;" text-anchor="middle"><textPath startOffset="22.20632615414155" xlink:href="#id19">July</textPath></text><path d="M 100.54218724476979 120.99299961872073 l 0.37399472139573575 14.480737271858528 a35.48556605687968,35.48556605687968 0 0,0 -0.6107578095206099,0.010514749573848311 l -0.12467722198245798 -14.485029498711535" fill="#ff750a" stroke="none" /><path d="M 100.18074693466247 120.99922214144158 l 0.12377412776582315 14.38010779641445 a35.38064046804605,35.38064046804605 0 0,0 -0.6090421248565473,0.0 l 0.12377412776581326 -14.38010779641445" fill="#ff730a" stroke="none" /><path d="M 99.81925306533755 120.99922214144158 l -0.15837077668781147 18.399554750905143 a39.40023631191906,39.40023631191906 0 0,0 -0.6781349348039138,-0.011674707888447378 l 0.4750654013843932 -18.394102565737537" fill="#ffae10" stroke="none" /><path d="M 99.45781275523022 120.99299961872073 l -0.4934915576685624 19.1075466675299 a40.11391832067206,40.11391832067206 0 0,0 -0.6901115382783094,-0.023768836742063426 l 0.8223234476215148 -19.096221032361743" fill="#ffb811" stroke="none" /><path d="M 99.09653310690486 120.98055641714683 l -0.7872043439001334 18.280675556841494 a39.29761704412783,39.29761704412783 0 0,0 -0.6755670778975043,-0.034919101325162565 l 1.1017594902111265 -18.264416648754132" fill="#ffad10" stroke="none" /><path d="M 98.73552117531835 120.96189622390904 l -3.2877078678386633 54.501973299168604 a75.60104501314545,75.60104501314545 0 0,0 -1.298312007417553,-0.08953919741789387 l 4.225382636035146 -54.43730575723443" fill="#41ffd2" stroke="none" /><path d="M 98.01472825383883 120.90594882070398 l -1.7479645086162166 18.406979612840786 a39.48978848962092,39.48978848962092 0 0,0 -0.6761543194193963,-0.07008615983602867 l 2.064551424641206 -18.374164084548998" fill="#ffaf10" stroke="none" /><line stroke="#e1ed5e" stroke-width="0.3" x1="58.666819895761336" x2="56.23545636021788" y1="174.27360380694188" y2="178.64263932499728" /><path d="M 58.180547188652646 175.14741091055294 a86.0,86.0 0 0,1 -31.652253787137756,-30.449443065178592" fill="none" id="id20" stroke="none" /><text fill="#e1ed5e" style="font-size:6.75px; font-family:Arial;" text-anchor="middle"><textPath startOffset="22.20632615414155" xlink:href="#id20">August</textPath></text><line stroke="#e1ed5e" stroke-width="0.3" x1="26.63291911575756" x2="22.317208475507996" y1="142.92168965132927" y2="145.44649492493687" /><path d="M 25.769776987707644 143.4266507060508 a86.0,86.0 0 0,1 -11.730757126820373,-40.83630448921669" fill="none" id="id21" stroke="none" /><text fill="#e1ed5e" style="font-size:6.75px; font-family:Arial;" text-anchor="middle"><textPath startOffset="21.46611528233685" xlink:href="#id21">September</textPath></text><line stroke="#e1ed5e" stroke-width="0.3" x1="15.007084014347285" x2="10.007500721073583" y1="101.09737516637583" y2="101.16192664675087" /><path d="M 14.007167355692545 101.11028546245083 a86.0,86.0 0 0,1 10.666146001902534,-42.60595125391555" fill="none" id="id22" stroke="none" /><text fill="#e1ed5e" style="font-size:6.75px; font-family:Arial;" text-anchor="middle"><textPath startOffset="22.20632615414155" xlink:href="#id22">October</textPath></text><line stroke="#e1ed5e" stroke-width="0.3" x1="26.266209847984243" x2="21.928928074336255" y1="57.711370442889674" y2="55.22380399835377" /><path d="M 25.398753493254645 57.213857153982495 a86.0,86.0 0 0,1 29.58750427330803,-30.492523968695096" fill="none" id="id23" stroke="none" /><text fill="#e1ed5e" style="font-size:6.75px; font-family:Arial;" text-anchor="middle"><textPath startOffset="21.46611528233685" xlink:href="#id23">November</textPath></text><line stroke="#e1ed5e" stroke-width="0.3" x1="56.762969772571076" x2="54.21961505331055" y1="26.818313649435495" y2="22.513508569990535" /><path d="M 56.25429882871897 25.957352633546506 a86.0,86.0 0 0,1 42.265352541879196,-11.944610805530505" fill="none" id="id24" stroke="none" /><text fill="#e1ed5e" style="font-size:6.75px; font-family:Arial;" text-anchor="middle"><textPath startOffset="22.20632615414155" xlink:href="#id24">December</textPath></text></svg>