<?xml version="1.0" encoding="utf-8" ?>
<svg baseProfile="full" height="200mm" version="1.1" viewBox="0,0,200,200" width="200mm" xmlns="http://www.w3.org/2000/svg" xmlns:ev="http://www.w3.org/2001/xml-events" xmlns:xlink="http://www.w3.org/1999/xlink"><defs /><rect fill="#1a1a1a" height="200" width="200" x="0" y="0" /><text alignment-baseline="middle" fill="#e1ed5e" style="dominant-baseline: central; font-size:9.0px; font-family:Arial;" text-anchor="middle" x="100.0" y="100.0">2026</text><line stroke="#e1ed5e" stroke-width="0.3" x1="100.0" x2="100.0" y1="15.0" y2="10.0" /><path d="M 100.0 14.0 a86.0,86.0 0 0,1 42.46469731375804,11.215312516191453" fill="none" id="id25" stroke="none" /><text fill="#e1ed5e" style="font-size:6.75px; font-family:Arial;" text-anchor="middle"><textPath startOffset="22.20632615414155" xlink:href="#id25">January</textPath></text><path d="M 101.08401301168833 79.027996857942 l 1.3461242409586271 -26.042973199201413 a47.07773961689202,47.07773961689202 0 0,0 0.808925481362931,0.04879659411547976 l -1.7942117711611698 26.01594333570563" fill="red" stroke="none" /><path d="M 101.44485096284872 79.0497635885617 l 1.791723012351234 -25.97985650960392 a47.041567072904776,47.041567072904776 0 0,0 0.807344870516397,0.06266550024325103 l -2.2386580722299723 25.945165747172204" fill="red" stroke="none" /><path d="M 102.16513564639614 79.11191278185805 l 2.6921332751130067 -25.972282497414557 a47.11143503709586,47.11143503709586 0 0,0 0.8059045767030178,0.09055276932876685 l -3.13880455532575 25.92209377461519" fill="red" stroke="none" /><path d="M 102.52436894288641 79.15227682838746 l 3.073162119353504 -25.379979937683366 a46.56536146916447,46.56536146916447 0 0,0 0.7949045832573194,0.10320142882109588 l -3.5095814311186695 25.323320185698133" fill="red" stroke="none" /><path d="M 103.2404852339499 79.25152402106235 l 6.9949574614563295 -44.78795500814832 a66.3308983332506,66.3308983332506 0 0,0 1.126585436478193,0.18589624997541043 l -7.7648721040733975 44.66091249523329" fill="red" stroke="none" /><path d="M 103.59715602781102 79.31037775812273 l 10.237067499218576 -58.88014247530944 a80.7634397344756,80.7634397344756 0 0,0 1.3676130098138741,0.24992253598112069 l -11.24907563013535 58.69520445797758" fill="red" stroke="none" /><path d="M 104.307194497241 79.44645832069477 l 5.363634421230831 -25.594777226786466 a47.150739865125026,47.150739865125026 0 0,0 0.7929346116625335,0.17330479392288503 l -5.803411757046892 25.49865893476771" fill="red" stroke="none" /><path d="M 105.36241919743992 79.69619591428918 l 4.701670012786557 -17.802000048943246 a39.41241175543583,39.41241175543583 0 0,0 0.654437674757367,0.17888253803757326 l -5.007405576767635 17.71843097007938" fill="red" stroke="none" /><path d="M 106.0581310904928 79.89281104454417 l 13.36213674288571 -44.34948737895124 a67.3187189925556,67.3187189925556 0 0,0 1.1066384041241417,0.34383793900109594 l -14.12356051972057 44.11290930506762" fill="red" stroke="none" /><path d="M 107.4271985657038 80.35727306442388 l 9.21463478240632 -24.369963081055378 a47.05387868907688,47.05387868907688 0 0,0 0.7551404414420146,0.2929827594688531 l -9.632758388848 24.20773761769598" fill="red" stroke="none" /><path d="M 107.76421540070413 80.48803036053334 l 9.632333750556995 -24.206670474525133 a47.05273016296692,47.05273016296692 0 0,0 0.7499670364500023,0.30593038471879386 l -10.047584656595385 24.03727920362276" fill="red" stroke="none" /><path d="M 108.09893153111575 80.62456947434976 l 24.296794593347244 -58.12629157695072 a84.0,84.0 0 0,0 1.329264968838739,0.5691218881488367 l -25.2937433199763 57.69945016083909" fill="red" stroke="none" /><path d="M 108.43124777332544 80.76684994638697 l 18.175541386349153 -41.46158720364937 a66.27044861863766,66.27044861863766 0 0,0 1.0408180462692935,0.4669847182431999 l -18.886541551085227 41.14258215488964" fill="red" stroke="none" /><path d="M 109.08828744355905 81.06846463323043 l 11.423225312596001 -23.79537347943954 a47.39526236975773,47.39526236975773 0 0,0 0.7324344974555065,0.35940242697331876 l -11.831131077061938 23.59521589233139" fill="red" stroke="none" /><path d="M 109.41281617654863 81.2277094730956 l 11.675888826324895 -23.28561113874585 a47.04891679109869,47.04891679109869 0 0,0 0.7208331213259669,0.36923872205348884 l -12.074982435239617 23.08117989137986" fill="red" stroke="none" /><path d="M 109.73455568895987 81.39251694778311 l 12.440090203841757 -23.779078884777363 a47.83655039099072,47.83655039099072 0 0,0 0.7263295737697831,0.3879801039217406 l -12.847564824139852 23.561420054353867" fill="red" stroke="none" /><path d="M 110.36928655335952 81.73862282372117 l 22.63136197456308 -39.85614968818595 a66.83329807891621,66.83329807891621 0 0,0 0.995508286628747,0.5766626552291051 l -23.314066993657157 39.460682875566796" fill="red" stroke="none" /><line stroke="#e1ed5e" stroke-width="0.3" x1="143.23703022742887" x2="145.7803849466894" y1="26.81831364943548" y2="22.513508569990506" /><path d="M 143.74570117128098 25.957352633546492 a86.0,86.0 0 0,1 28.547481713284135,27.462654790039103" fill="none" id="id26" stroke="none" /><text fill="#e1ed5e" style="font-size:6.75px; font-family:Arial;" text-anchor="middle"><textPath startOffset="19.985693538727396" xlink:href="#id26">February</textPath></text><path d="M 110.68208982089419 81.91981866633111 l 31.439240573037786 -53.21310530843115 a82.80663738123543,82.80663738123543 0 0,0 1.2209560048662418,0.7356123315619285 l -32.35055864412167 52.664046367410606" fill="red" stroke="none" /><path d="M 110.99172775467656 82.1063720568725 l 13.679947423021614 -22.269828268349208 a47.13591805539651,47.13591805539651 0 0,0 0.6876925013106631,0.4306329812317059 l -14.061259076704541 22.031050945794558" fill="red" stroke="none" /><path d="M 111.90073688211348 82.69761687909136 l 14.715727220321089 -21.395074337914572 a46.967322417757856,46.967322417757856 0 0,0 0.6621696011920387,0.4638921221064847 l -15.081827961096778 21.138597373044153" fill="red" stroke="none" /><path d="M 113.06298171725822 83.55741782278167 l 11.324156694774608 -14.253895555524789 a39.20467147068625,39.20467147068625 0 0,0 0.524776186228836,0.4243325135261863 l -11.567836279567935 14.056856944734472" fill="red" stroke="none" /><path d="M 116.38621287248628 86.86637796730983 l 19.50521569004228 -15.63351657473274 a45.997205435958534,45.997205435958534 0 0,0 0.4898612999920601,0.6220741047960415 l -19.771431070628303 15.29545007598366" fill="red" stroke="none" /><path d="M 116.82858285166822 87.43820079747576 l 20.9220620524317 -15.617401935858563 a47.10815818383138,47.10815818383138 0 0,0 0.4794654599765214,0.6539903485738536 l -21.187790124921847 15.254949143613215" fill="red" stroke="none" /><path d="M 117.04232023915458 87.72973835380427 l 21.210981983834532 -15.271646997715644 a47.13673580884557,47.13673580884557 0 0,0 0.4684210431878325,0.6625483462682206 l -21.470715646826246 14.90427215111563" fill="red" stroke="none" /><path d="M 117.2510076193507 88.02491185347247 l 21.386034796077674 -14.845489460016497 a47.033652098898955,47.033652098898955 0 0,0 0.4559476598849645,0.6690469298950044 l -21.638406921631372 14.475164506851087" fill="red" stroke="none" /><path d="M 117.45458315368197 88.32363383020206 l 15.206276404409074 -10.172345556105961 a39.29501178464001,39.29501178464001 0 0,0 0.37125059770107477,0.5654401303382207 l -15.379123637468073 9.909087361790068" fill="red" stroke="none" /><line stroke="#e1ed5e" stroke-width="0.3" x1="172.23445277983987" x2="176.4835382374775" y1="55.19839476539836" y2="52.563006222186495" /><path d="M 173.08426987136738 54.67131705675599 a86.0,86.0 0 0,1 12.851231095245387,41.99856678651699" fill="none" id="id27" stroke="none" /><text fill="#e1ed5e" style="font-size:6.75px; font-family:Arial;" text-anchor="middle"><textPath startOffset="22.20632615414155" xlink:href="#id27">March</textPath></text><line stroke="#e1ed5e" stroke-width="0.3" x1="184.98032266829074" x2="189.97916517819016" y1="98.17113171792111" y2="98.06355123074" /><path d="M 185.9800911702706 98.14961562048488 a86.0,86.0 0 0,1 -9.607161424134198,41.387399972396054" fill="none" id="id28" stroke="none" /><text fill="#e1ed5e" style="font-size:6.75px; font-family:Arial;" text-anchor="middle"><textPath startOffset="21.466115282336823" xlink:href="#id28">April</textPath></text><line stroke="#e1ed5e" stroke-width="0.3" x1="174.80103733775053" x2="179.2010983576182" y1="140.37084112569926" y2="142.7455964860345" /><path d="M 175.68104954172406 140.8457921977663 a86.0,86.0 0 0,1 -30.038265399797805,32.042727171017184" fill="none" id="id29" stroke="none" /><text fill="#e1ed5e" style="font-size:6.75px; font-family:Arial;" text-anchor="middle"><textPath startOffset="22.206326154141568" xlink:href="#id29">May</textPath></text><line stroke="#e1ed5e" stroke-width="0.3" x1="143.8653032363475" x2="146.44561519142675" y1="172.8068346515853" y2="177.08958963109032" /><path d="M 144.38136562736335 173.6633856474863 a86.0,86.0 0 0,1 -40.68145358897372,12.25698825130547" fill="none" id="id30" stroke="none" /><text fill="#e1ed5e" style="font-size:6.75px; font-family:Arial;" text-anchor="middle"><textPath startOffset="21.466115282336833" xlink:href="#id30">June</textPath></text><line stroke="#e1ed5e" stroke-width="0.3" x1="102.19456741930631" x2="102.32365962044197" y1="184.97166512339345" y2="189.96999836594603" /><path d="M 102.22038585953345 185.97133177190398 a86.0,86.0 0 0,1 -42.740103519485714,-10.115201625700543" fill="none" id="id31" stroke="none" /><text fill="#e1ed5e" style="font-size:6.75px; font-family:Arial;" text-anchor="middle"><textPath startOffset="22.20632615414155" xlink:href="#id31">July</textPath></text><line stroke="#e1ed5e" stroke-width="0.3" x1="58.666819895761336" x2="56.23545636021788" y1="174.27360380694188" y2="178.64263932499728" /><path d="M 58.180547188652646 175.14741091055294 a86.0,86.0 0 0,1 -31.652253787137756,-30.449443065178592" fill="none" id="id32" stroke="none" /><text fill="#e1ed5e" style="font-size:6.75px; font-family:Arial;" text-anchor="middle"><textPath startOffset="22.20632615414155" xlink:href="#id32">August</textPath></text><line stroke="#e1ed5e" stroke-width="0.3" x1="26.63291911575756" x2="22.317208475507996" y1="142.92168965132927" y2="145.44649492493687" /><path d="M 25.769776987707644 143.4266507060508 a86.0,86.0 0 0,1 -11.730757126820373,-40.83630448921669" fill="none" id="id33" stroke="none" /><text fill="#e1ed5e" style="font-size:6.75px; font-family:Arial;" text-anchor="middle"><textPath startOffset="21.46611528233685" xlink:href="#id33">September</textPath></text><line stroke="#e1ed5e" stroke-width="0.3" x1="15.007084014347285" x2="10.007500721073583" y1="101.09737516637583" y2="101.16192664675087" /><path d="M 14.007167355692545 101.11028546245083 a86.0,86.0 0 0,1 10.666146001902534,-42.60595125391555" fill="none" id="id34" stroke="none" /><text fill="#e1ed5e" style="font-size:6.75px; font-family:Arial;" text-anchor="middle"><textPath startOffset="22.20632615414155" xlink:href="#id34">October</textPath></text><line stroke="#e1ed5e" stroke-width="0.3" x1="26.266209847984243" x2="21.928928074336255" y1="57.711370442889674" y2="55.22380399835377" /><path d="M 25.398753493254645 57.213857153982495 a86.0,86.0 0 0,1 29.58750427330803,-30.492523968695096" fill="none" id="id35" stroke="none" /><text fill="#e1ed5e" style="font-size:6.75px; font-family:Arial;" text-anchor="middle"><textPath startOffset="21.46611528233685" xlink:href="#id35">November</textPath></text><line stroke="#e1ed5e" stroke-width="0.3" x1="56.762969772571076" x2="54.21961505331055" y1="26.818313649435495" y2="22.513508569990535" /><path d="M 56.25429882871897 25.957352633546506 a86.0,86.0 0 0,1 42.265352541879196,-11.944610805530505" fill="none" id="id36" stroke="none" /><text fill="#e1ed5e" style="font-size:6.75px; font-family:Arial;" text-anchor="middle"><textPath startOffset="22.20632615414155" xlink:href="#id36">December</textPath></text></svg>